<svg xmlns="http://www.w3.org/2000/svg" width="32" height="36" viewBox="0 0 32 36" fill="none"><path d="M2.58551 14.5762V3.74293H0.551605V2.00875C1.19389 2.00875 1.72913 1.90884 2.15732 1.70902C2.59979 1.5092 2.88525 1.08814 3.01371 0.445856H4.55519V14.5762H2.58551ZM7.43829 14.5762V12.2853L12.4695 8.45303C12.7835 8.19612 13.1047 7.92493 13.433 7.63947C13.7613 7.33974 14.061 7.01146 14.3322 6.65463C14.6176 6.29781 14.846 5.91957 15.0173 5.51992C15.2028 5.12028 15.2956 4.69209 15.2956 4.23535C15.2956 3.76434 15.1886 3.35042 14.9745 2.99359C14.7604 2.63677 14.4392 2.36558 14.011 2.18003C13.5971 1.98021 13.0761 1.8803 12.4481 1.8803C12.0199 1.8803 11.6203 1.93739 11.2492 2.05157C10.8781 2.16576 10.557 2.36558 10.2858 2.65104C10.0146 2.9365 9.80762 3.31474 9.66489 3.78575C9.53643 4.25676 9.4722 4.84195 9.4722 5.54133L7.58816 5.22019C7.55961 4.19253 7.72375 3.30047 8.08058 2.54399C8.43741 1.77325 8.97978 1.18092 9.70771 0.766999C10.4499 0.353081 11.3777 0.146122 12.491 0.146122C13.4472 0.146122 14.2822 0.303126 14.9959 0.617133C15.7095 0.931139 16.259 1.38788 16.6444 1.98735C17.0441 2.57254 17.2439 3.27192 17.2439 4.08548C17.2439 4.75632 17.1297 5.37719 16.9013 5.94812C16.673 6.50476 16.3804 7.01859 16.0235 7.4896C15.6667 7.94634 15.2742 8.36026 14.846 8.73136C14.4321 9.08819 14.0253 9.40933 13.6257 9.69479L9.57925 12.7778V12.9705L17.5864 12.8848V14.5762H7.43829ZM19.4114 14.5762L24.1001 7.51101L19.3686 0.445856H21.6808L25.3205 6.31208H25.4275L29.0671 0.445856H31.3794L26.6693 7.4896L31.4864 14.5762H29.1742L25.4061 8.64572H25.3205L21.7023 14.5762H19.4114ZM7.79507 35.5762V33.8848H11.9699C12.9405 33.8848 13.7398 33.6636 14.3678 33.2211C14.9958 32.7644 15.4597 32.1364 15.7594 31.3371C16.0734 30.5378 16.2304 29.61 16.2304 28.5538C16.2304 27.6261 16.1305 26.8197 15.9307 26.1346C15.7452 25.4494 15.4526 24.8928 15.0529 24.4646C14.6533 24.0221 14.1466 23.6939 13.5328 23.4798C12.9334 23.2514 12.2197 23.1372 11.3919 23.1372H7.79507V21.4459H11.3491C12.9476 21.4459 14.2536 21.7242 15.267 22.2808C16.2804 22.8375 17.0297 23.6368 17.515 24.6787C18.0003 25.7206 18.2429 26.9624 18.2429 28.404C18.2429 29.3603 18.1359 30.2238 17.9218 30.9945C17.722 31.7653 17.4294 32.4361 17.044 33.007C16.6729 33.5779 16.2304 34.0561 15.7166 34.4415C15.2028 34.8126 14.6319 35.098 14.0038 35.2978C13.3758 35.4834 12.7193 35.5762 12.0342 35.5762H7.79507ZM6.746 35.5762V21.4459H8.71568V35.5762H6.746ZM21.4024 35.5762V21.4459H23.372V35.5762H21.4024ZM22.4086 35.5762V33.8848H31.315V35.5762H22.4086ZM22.4086 29.1533V27.569H30.3087V29.1533H22.4086ZM22.4086 23.1158V21.4459H31.2936V23.1158H22.4086Z" fill="#053636"></path></svg>