<svg xmlns="http://www.w3.org/2000/svg" width="170" height="22" viewBox="0 0 170 22" fill="none"><path d="M2.16 16.5762V15.3122H5.28C6.00533 15.3122 6.60267 15.1468 7.072 14.8162C7.54133 14.4748 7.888 14.0055 8.112 13.4082C8.34667 12.8108 8.464 12.1175 8.464 11.3282C8.464 10.6348 8.38933 10.0322 8.24 9.52017C8.10133 9.00817 7.88267 8.59217 7.584 8.27217C7.28533 7.9415 6.90667 7.69617 6.448 7.53617C6 7.3655 5.46667 7.28017 4.848 7.28017H2.16V6.01617H4.816C6.01067 6.01617 6.98667 6.22417 7.744 6.64017C8.50133 7.05617 9.06133 7.65351 9.424 8.43217C9.78667 9.21084 9.968 10.1388 9.968 11.2162C9.968 11.9308 9.888 12.5762 9.728 13.1522C9.57867 13.7282 9.36 14.2295 9.072 14.6562C8.79467 15.0828 8.464 15.4402 8.08 15.7282C7.696 16.0055 7.26933 16.2188 6.8 16.3682C6.33067 16.5068 5.84 16.5762 5.328 16.5762H2.16ZM1.376 16.5762V6.01617H2.848V16.5762H1.376ZM15.7691 16.7842C15.1185 16.7842 14.5425 16.6882 14.0411 16.4962C13.5505 16.2935 13.1345 16.0055 12.7931 15.6322C12.4518 15.2588 12.1958 14.8162 12.0251 14.3042C11.8545 13.7922 11.7691 13.2162 11.7691 12.5762C11.7691 11.9255 11.8545 11.3282 12.0251 10.7842C12.1958 10.2402 12.4465 9.7655 12.7771 9.36017C13.1078 8.95484 13.5131 8.6455 13.9931 8.43217C14.4731 8.20817 15.0225 8.09617 15.6411 8.09617C16.1851 8.09617 16.6811 8.18684 17.1291 8.36817C17.5771 8.5495 17.9558 8.83217 18.2651 9.21617C18.5851 9.58951 18.8251 10.0642 18.9851 10.6402C19.1451 11.2055 19.2091 11.8722 19.1771 12.6402L12.6811 12.6882V11.6962L18.2971 11.6482L17.8011 12.3202C17.8545 11.6482 17.7905 11.0935 17.6091 10.6562C17.4278 10.2188 17.1665 9.88817 16.8251 9.66417C16.4945 9.44017 16.0998 9.32817 15.6411 9.32817C15.1505 9.32817 14.7185 9.45617 14.3451 9.71217C13.9718 9.96817 13.6838 10.3362 13.4811 10.8162C13.2891 11.2962 13.1931 11.8775 13.1931 12.5602C13.1931 13.5415 13.4118 14.2935 13.8491 14.8162C14.2865 15.3282 14.9318 15.5842 15.7851 15.5842C16.1265 15.5842 16.4198 15.5468 16.6651 15.4722C16.9211 15.3868 17.1345 15.2748 17.3051 15.1362C17.4865 14.9868 17.6305 14.8162 17.7371 14.6242C17.8545 14.4322 17.9451 14.2242 18.0091 14.0002L19.2891 14.3042C19.1931 14.6882 19.0438 15.0348 18.8411 15.3442C18.6491 15.6428 18.4038 15.8988 18.1051 16.1122C17.8171 16.3255 17.4811 16.4908 17.0971 16.6082C16.7131 16.7255 16.2705 16.7842 15.7691 16.7842Z" fill="#053636"></path><path opacity="0.2" d="M27.3671 18.5762V3.54848H32.8772C33.6666 3.54848 34.38 3.6092 35.0175 3.73063C35.6551 3.85207 36.2243 4.03422 36.7252 4.2771C37.2262 4.51997 37.6512 4.82356 38.0003 5.18786C38.3494 5.53699 38.6075 5.94684 38.7745 6.4174C38.9566 6.87279 39.0477 7.3813 39.0477 7.94294C39.0477 8.47422 38.9642 8.95997 38.7972 9.40017C38.6454 9.8252 38.4026 10.2047 38.0686 10.5386C37.7498 10.8726 37.3476 11.1458 36.8618 11.3583C36.3913 11.5557 35.8372 11.6923 35.1997 11.7682V12.0642C35.8221 12.1401 36.3457 12.2995 36.7708 12.5423C37.1958 12.7852 37.5525 13.1267 37.8409 13.5669C38.1293 14.0071 38.3722 14.584 38.5695 15.2974L39.5031 18.5762H36.7935L36.0649 15.5706C35.9131 14.9635 35.6854 14.4777 35.3818 14.1134C35.0783 13.7339 34.6988 13.4607 34.2434 13.2937C33.788 13.1267 33.2491 13.0432 32.6268 13.0432H29.8489V18.5762H27.3671ZM29.8489 11.0851H32.6951C33.9398 11.0851 34.8809 10.8574 35.5185 10.402C36.1712 9.94663 36.4975 9.24838 36.4975 8.30725C36.4975 7.36612 36.1864 6.67545 35.564 6.23525C34.9568 5.77986 34.0157 5.55217 32.7406 5.55217H29.8489V11.0851ZM46.77 3.86725L46.2919 0.747864H48.7965L48.3183 3.86725H46.77ZM46.2919 21.4451L46.77 18.3485H48.3183L48.7965 21.4451H46.2919ZM47.7036 18.5762C46.7321 18.5762 45.8668 18.4775 45.1079 18.2802C44.3641 18.0828 43.7341 17.7944 43.218 17.4149C42.7019 17.0203 42.3148 16.5345 42.0568 15.9577C41.7987 15.3809 41.6773 14.7054 41.6925 13.9312L43.8556 13.362C43.8252 14.1058 43.9694 14.7206 44.2882 15.2063C44.6069 15.6921 45.0699 16.0564 45.6771 16.2992C46.2843 16.5269 46.9977 16.6408 47.8174 16.6408C48.5916 16.6408 49.2443 16.5497 49.7756 16.3676C50.3068 16.1702 50.7091 15.9122 50.9823 15.5934C51.2707 15.2595 51.4149 14.88 51.4149 14.4549C51.4149 13.9692 51.248 13.5897 50.914 13.3165C50.5952 13.0281 50.155 12.8004 49.5934 12.6334C49.0318 12.4664 48.417 12.307 47.7491 12.1552C47.0357 12.0035 46.3374 11.8365 45.6543 11.6543C44.9712 11.457 44.3489 11.2065 43.7872 10.9029C43.2256 10.5842 42.7778 10.1743 42.4439 9.6734C42.1099 9.17248 41.9429 8.54253 41.9429 7.78356C41.9429 6.91833 42.163 6.16694 42.6032 5.5294C43.0586 4.89186 43.6962 4.39853 44.5159 4.0494C45.3507 3.70027 46.3374 3.52571 47.4759 3.52571C48.5991 3.52571 49.5858 3.70027 50.4359 4.0494C51.3011 4.38335 51.9766 4.87668 52.4623 5.5294C52.9632 6.18212 53.2289 6.97145 53.2592 7.8974L51.0051 8.46663C51.0051 7.96571 50.9216 7.5255 50.7546 7.14602C50.5877 6.76653 50.3448 6.45535 50.026 6.21248C49.7224 5.95443 49.3505 5.76469 48.9103 5.64325C48.4853 5.50663 47.9996 5.43833 47.4531 5.43833C46.8156 5.43833 46.2539 5.5294 45.7682 5.71156C45.2976 5.89371 44.9257 6.15176 44.6525 6.48571C44.3944 6.80448 44.2654 7.17638 44.2654 7.6014C44.2654 8.10233 44.4551 8.51217 44.8346 8.83094C45.2293 9.13453 45.7378 9.3774 46.3602 9.55956C46.9825 9.74171 47.6504 9.90868 48.3639 10.0605C49.0014 10.1971 49.6389 10.3565 50.2765 10.5386C50.914 10.7208 51.4908 10.9637 52.0069 11.2672C52.5382 11.5708 52.9632 11.9731 53.282 12.474C53.6008 12.9749 53.7602 13.6125 53.7602 14.3866C53.7602 15.2367 53.5325 15.9805 53.0771 16.618C52.6217 17.2404 51.9462 17.7261 51.0506 18.0752C50.155 18.4092 49.0394 18.5762 47.7036 18.5762ZM57.7877 18.5762V7.46479H55.6018V5.27894C56.3001 5.27894 56.8769 5.16509 57.3323 4.9374C57.8028 4.70971 58.1064 4.24674 58.243 3.54848H60.2923V18.5762H57.7877ZM64.3751 18.8494C63.8134 18.8494 63.3884 18.728 63.1 18.4851C62.8268 18.2422 62.6902 17.8627 62.6902 17.3466C62.6902 16.8154 62.8344 16.4283 63.1228 16.1854C63.4112 15.9425 63.8286 15.8211 64.3751 15.8211C64.9519 15.8211 65.3845 15.9425 65.6729 16.1854C65.9613 16.4283 66.1055 16.8154 66.1055 17.3466C66.1055 18.3485 65.5287 18.8494 64.3751 18.8494ZM73.4004 18.9177C72.6414 18.9177 71.9508 18.8342 71.3284 18.6672C70.7212 18.5003 70.1824 18.2498 69.7118 17.9159C69.2564 17.5819 68.8769 17.1645 68.5733 16.6636C68.2697 16.1626 68.0572 15.5858 67.9358 14.9331L70.2583 14.3183C70.3645 14.8041 70.5315 15.2063 70.7592 15.5251C70.9869 15.8439 71.2449 16.0943 71.5333 16.2765C71.8217 16.4435 72.1253 16.5649 72.4441 16.6408C72.7781 16.7167 73.112 16.7546 73.446 16.7546C74.1746 16.7546 74.7893 16.6104 75.2903 16.322C75.7912 16.0336 76.1934 15.6314 76.497 15.1152C76.8158 14.5991 77.0435 14.0071 77.1801 13.3392C77.3167 12.6562 77.385 11.9351 77.385 11.1762C77.385 10.7815 77.3623 10.402 77.3167 10.0377C77.2864 9.65822 77.2408 9.28633 77.1801 8.92202C77.1346 8.55771 77.0814 8.20858 77.0207 7.87463H76.7475C76.8082 8.75504 76.7247 9.50643 76.497 10.1288C76.2693 10.7511 75.9354 11.2597 75.4952 11.6543C75.0702 12.049 74.5844 12.3374 74.038 12.5196C73.4915 12.7017 72.9374 12.7928 72.3758 12.7928C71.5713 12.7928 70.8199 12.6106 70.1216 12.2463C69.4386 11.882 68.8845 11.3583 68.4595 10.6752C68.0345 9.97699 67.822 9.14212 67.822 8.17063C67.822 7.5331 67.9206 6.91833 68.118 6.32633C68.3305 5.73433 68.6492 5.20304 69.0743 4.73248C69.5145 4.26191 70.0761 3.89002 70.7592 3.61679C71.4423 3.34356 72.262 3.20694 73.2183 3.20694C74.6148 3.20694 75.7988 3.51812 76.7703 4.14048C77.7569 4.76284 78.5083 5.67361 79.0244 6.87279C79.5405 8.07197 79.7986 9.54438 79.7986 11.29C79.7986 12.8839 79.5633 14.2576 79.0927 15.4112C78.6222 16.5497 77.9087 17.4225 76.9524 18.0297C76.0113 18.6217 74.8273 18.9177 73.4004 18.9177ZM73.1272 10.9485C73.704 10.9485 74.2201 10.8195 74.6755 10.5614C75.1309 10.3034 75.4876 9.93904 75.7456 9.46848C76.0037 8.98274 76.1327 8.42109 76.1327 7.78356C76.1327 7.11566 75.9961 6.59956 75.7229 6.23525C75.4496 5.87094 75.1005 5.62048 74.6755 5.48386C74.2656 5.33207 73.8406 5.25617 73.4004 5.25617C72.8691 5.25617 72.4062 5.33966 72.0115 5.50663C71.6168 5.65843 71.2905 5.87094 71.0324 6.14417C70.7895 6.4174 70.6074 6.72858 70.486 7.07771C70.3645 7.41166 70.3038 7.76838 70.3038 8.14786C70.3038 8.73986 70.4328 9.24838 70.6909 9.6734C70.9641 10.0984 71.3132 10.4172 71.7383 10.6297C72.1633 10.8422 72.6263 10.9485 73.1272 10.9485ZM88.0092 18.9177C87.2502 18.9177 86.5595 18.8342 85.9372 18.6672C85.33 18.5003 84.7911 18.2498 84.3206 17.9159C83.8652 17.5819 83.4857 17.1645 83.1821 16.6636C82.8785 16.1626 82.666 15.5858 82.5446 14.9331L84.867 14.3183C84.9733 14.8041 85.1403 15.2063 85.368 15.5251C85.5956 15.8439 85.8537 16.0943 86.1421 16.2765C86.4305 16.4435 86.7341 16.5649 87.0529 16.6408C87.3868 16.7167 87.7208 16.7546 88.0547 16.7546C88.7833 16.7546 89.3981 16.6104 89.899 16.322C90.4 16.0336 90.8022 15.6314 91.1058 15.1152C91.4246 14.5991 91.6523 14.0071 91.7889 13.3392C91.9255 12.6562 91.9938 11.9351 91.9938 11.1762C91.9938 10.7815 91.971 10.402 91.9255 10.0377C91.8951 9.65822 91.8496 9.28633 91.7889 8.92202C91.7433 8.55771 91.6902 8.20858 91.6295 7.87463H91.3563C91.417 8.75504 91.3335 9.50643 91.1058 10.1288C90.8781 10.7511 90.5442 11.2597 90.104 11.6543C89.6789 12.049 89.1932 12.3374 88.6467 12.5196C88.1003 12.7017 87.5462 12.7928 86.9846 12.7928C86.1801 12.7928 85.4287 12.6106 84.7304 12.2463C84.0473 11.882 83.4933 11.3583 83.0683 10.6752C82.6432 9.97699 82.4307 9.14212 82.4307 8.17063C82.4307 7.5331 82.5294 6.91833 82.7267 6.32633C82.9392 5.73433 83.258 5.20304 83.683 4.73248C84.1232 4.26191 84.6849 3.89002 85.368 3.61679C86.051 3.34356 86.8707 3.20694 87.827 3.20694C89.2235 3.20694 90.4075 3.51812 91.379 4.14048C92.3657 4.76284 93.1171 5.67361 93.6332 6.87279C94.1493 8.07197 94.4073 9.54438 94.4073 11.29C94.4073 12.8839 94.1721 14.2576 93.7015 15.4112C93.2309 16.5497 92.5175 17.4225 91.5612 18.0297C90.6201 18.6217 89.4361 18.9177 88.0092 18.9177ZM87.736 10.9485C88.3128 10.9485 88.8289 10.8195 89.2843 10.5614C89.7396 10.3034 90.0964 9.93904 90.3544 9.46848C90.6125 8.98274 90.7415 8.42109 90.7415 7.78356C90.7415 7.11566 90.6049 6.59956 90.3316 6.23525C90.0584 5.87094 89.7093 5.62048 89.2843 5.48386C88.8744 5.33207 88.4494 5.25617 88.0092 5.25617C87.4779 5.25617 87.0149 5.33966 86.6203 5.50663C86.2256 5.65843 85.8992 5.87094 85.6412 6.14417C85.3983 6.4174 85.2162 6.72858 85.0947 7.07771C84.9733 7.41166 84.9126 7.76838 84.9126 8.14786C84.9126 8.73986 85.0416 9.24838 85.2996 9.6734C85.5729 10.0984 85.922 10.4172 86.347 10.6297C86.7721 10.8422 87.235 10.9485 87.736 10.9485ZM98.2591 18.5762C98.2591 17.5136 98.3577 16.4131 98.5551 15.2746C98.7676 14.121 99.0864 12.9749 99.5114 11.8365C99.9516 10.698 100.506 9.61268 101.174 8.58048C101.857 7.5331 102.661 6.59197 103.587 5.75709V5.55217L95.8228 5.64325V3.52571H105.864V5.77986C105.12 6.50848 104.445 7.34335 103.838 8.28448C103.246 9.21043 102.729 10.2199 102.289 11.3128C101.864 12.3905 101.538 13.5442 101.31 14.7737C101.082 15.9881 100.969 17.2556 100.969 18.5762H98.2591ZM105.015 21.65C105.289 20.9518 105.478 20.3142 105.585 19.7374C105.706 19.1606 105.774 18.6065 105.79 18.0752C105.82 17.5288 105.835 16.9747 105.835 16.4131H108.158C108.158 17.2783 108.105 18.0373 107.998 18.69C107.892 19.3427 107.748 19.912 107.566 20.3977C107.383 20.8835 107.201 21.3009 107.019 21.65H105.015ZM115.818 18.8949C114.892 18.8949 114.05 18.7128 113.291 18.3485C112.532 17.9842 111.879 17.4681 111.333 16.8002C110.801 16.1323 110.391 15.3202 110.103 14.3639C109.815 13.4076 109.67 12.3374 109.67 11.1534C109.67 9.46848 109.936 8.04161 110.467 6.87279C110.999 5.68879 111.727 4.7932 112.653 4.18602C113.594 3.56366 114.664 3.25248 115.864 3.25248C117.123 3.25248 118.209 3.57125 119.12 4.20879C120.03 4.84633 120.729 5.75709 121.214 6.94109C121.715 8.10992 121.966 9.49884 121.966 11.1079C121.966 12.2919 121.822 13.3696 121.533 14.3411C121.245 15.2974 120.827 16.1171 120.281 16.8002C119.734 17.4681 119.082 17.9842 118.323 18.3485C117.579 18.7128 116.744 18.8949 115.818 18.8949ZM115.841 16.8229C116.342 16.8229 116.812 16.7091 117.253 16.4814C117.693 16.2537 118.08 15.9122 118.414 15.4568C118.748 14.9862 119.006 14.3942 119.188 13.6808C119.385 12.9522 119.484 12.0945 119.484 11.1079C119.484 9.89351 119.332 8.85371 119.029 7.98848C118.725 7.12325 118.3 6.46294 117.753 6.00756C117.207 5.53699 116.569 5.30171 115.841 5.30171C115.218 5.30171 114.619 5.49904 114.042 5.89371C113.48 6.2732 113.025 6.88797 112.676 7.73802C112.327 8.57289 112.152 9.68099 112.152 11.0623C112.152 12.0338 112.243 12.8839 112.425 13.6125C112.608 14.3259 112.866 14.9255 113.2 15.4112C113.534 15.8818 113.921 16.2385 114.361 16.4814C114.816 16.7091 115.31 16.8229 115.841 16.8229ZM130.805 18.8949C129.879 18.8949 129.036 18.7128 128.277 18.3485C127.518 17.9842 126.866 17.4681 126.319 16.8002C125.788 16.1323 125.378 15.3202 125.09 14.3639C124.801 13.4076 124.657 12.3374 124.657 11.1534C124.657 9.46848 124.923 8.04161 125.454 6.87279C125.985 5.68879 126.714 4.7932 127.64 4.18602C128.581 3.56366 129.651 3.25248 130.85 3.25248C132.11 3.25248 133.196 3.57125 134.106 4.20879C135.017 4.84633 135.715 5.75709 136.201 6.94109C136.702 8.10992 136.953 9.49884 136.953 11.1079C136.953 12.2919 136.808 13.3696 136.52 14.3411C136.232 15.2974 135.814 16.1171 135.268 16.8002C134.721 17.4681 134.068 17.9842 133.309 18.3485C132.566 18.7128 131.731 18.8949 130.805 18.8949ZM130.828 16.8229C131.329 16.8229 131.799 16.7091 132.239 16.4814C132.68 16.2537 133.067 15.9122 133.401 15.4568C133.734 14.9862 133.993 14.3942 134.175 13.6808C134.372 12.9522 134.471 12.0945 134.471 11.1079C134.471 9.89351 134.319 8.85371 134.015 7.98848C133.712 7.12325 133.287 6.46294 132.74 6.00756C132.194 5.53699 131.556 5.30171 130.828 5.30171C130.205 5.30171 129.606 5.49904 129.029 5.89371C128.467 6.2732 128.012 6.88797 127.663 7.73802C127.314 8.57289 127.139 9.68099 127.139 11.0623C127.139 12.0338 127.23 12.8839 127.412 13.6125C127.594 14.3259 127.852 14.9255 128.186 15.4112C128.52 15.8818 128.907 16.2385 129.348 16.4814C129.803 16.7091 130.296 16.8229 130.828 16.8229Z" fill="#053636"></path><path d="M145.264 19.1682V12.4482V8.30417H146.576L146.496 10.4322H146.736C146.864 9.96284 147.04 9.5575 147.264 9.21617C147.499 8.86417 147.797 8.59217 148.16 8.40017C148.523 8.1975 148.96 8.09617 149.472 8.09617C150.229 8.09617 150.859 8.28817 151.36 8.67217C151.872 9.0455 152.256 9.56284 152.512 10.2242C152.768 10.8748 152.896 11.6162 152.896 12.4482C152.896 13.2802 152.768 14.0215 152.512 14.6722C152.256 15.3228 151.877 15.8402 151.376 16.2242C150.885 16.5975 150.283 16.7842 149.568 16.7842C148.992 16.7842 148.512 16.6668 148.128 16.4322C147.755 16.1868 147.456 15.8668 147.232 15.4722C147.008 15.0775 146.832 14.6668 146.704 14.2402H146.432C146.496 14.5282 146.549 14.8268 146.592 15.1362C146.635 15.4455 146.667 15.7548 146.688 16.0642C146.72 16.3628 146.736 16.6508 146.736 16.9282V19.1682H145.264ZM149.2 15.5202C149.669 15.5202 150.064 15.3868 150.384 15.1202C150.704 14.8428 150.949 14.4695 151.12 14.0002C151.291 13.5308 151.376 13.0028 151.376 12.4162C151.376 11.7868 151.285 11.2482 151.104 10.8002C150.933 10.3522 150.688 10.0055 150.368 9.76017C150.048 9.50417 149.659 9.37617 149.2 9.37617C148.805 9.37617 148.453 9.46684 148.144 9.64817C147.845 9.81884 147.589 10.0535 147.376 10.3522C147.163 10.6402 146.997 10.9602 146.88 11.3122C146.773 11.6535 146.72 11.9948 146.72 12.3362V12.5282C146.72 12.7415 146.752 12.9815 146.816 13.2482C146.88 13.5042 146.976 13.7655 147.104 14.0322C147.232 14.2988 147.392 14.5442 147.584 14.7682C147.787 14.9922 148.021 15.1735 148.288 15.3122C148.555 15.4508 148.859 15.5202 149.2 15.5202ZM158.566 16.7842C157.777 16.7842 157.078 16.6135 156.47 16.2722C155.873 15.9202 155.403 15.4188 155.062 14.7682C154.731 14.1175 154.566 13.3282 154.566 12.4002C154.566 11.4402 154.742 10.6455 155.094 10.0162C155.457 9.37617 155.937 8.89617 156.534 8.57617C157.131 8.25617 157.798 8.09617 158.534 8.09617C159.302 8.09617 159.985 8.26684 160.582 8.60817C161.19 8.93884 161.67 9.42951 162.022 10.0802C162.374 10.7202 162.55 11.5148 162.55 12.4642C162.55 13.4135 162.374 14.2082 162.022 14.8482C161.681 15.4882 161.206 15.9735 160.598 16.3042C160.001 16.6242 159.323 16.7842 158.566 16.7842ZM158.63 15.5842C159.142 15.5842 159.579 15.4615 159.942 15.2162C160.315 14.9602 160.598 14.6028 160.79 14.1442C160.993 13.6855 161.094 13.1415 161.094 12.5122C161.094 11.8615 160.987 11.3015 160.774 10.8322C160.571 10.3522 160.278 9.98417 159.894 9.72817C159.51 9.4615 159.046 9.32817 158.502 9.32817C158.001 9.32817 157.563 9.4455 157.19 9.68017C156.827 9.91484 156.545 10.2615 156.342 10.7202C156.139 11.1682 156.038 11.7175 156.038 12.3682C156.038 13.3708 156.267 14.1602 156.726 14.7362C157.195 15.3015 157.83 15.5842 158.63 15.5842ZM164.623 16.5762V12.0962V8.30417H165.935L165.807 11.1842H166.079C166.175 10.5548 166.325 10.0108 166.527 9.55217C166.73 9.0935 166.997 8.73617 167.327 8.48017C167.669 8.22417 168.09 8.09617 168.591 8.09617C168.698 8.09617 168.821 8.10684 168.959 8.12817C169.098 8.13884 169.258 8.17617 169.439 8.24017L169.359 9.76017C169.199 9.69617 169.039 9.65351 168.879 9.63217C168.719 9.60017 168.565 9.58417 168.415 9.58417C167.999 9.58417 167.637 9.7175 167.327 9.98417C167.029 10.2508 166.778 10.6135 166.575 11.0722C166.373 11.5202 166.207 12.0268 166.079 12.5922V16.5762H164.623Z" fill="#053636"></path><path d="M144 8.52686L22 14.0977" stroke="#EC5353" stroke-width="2.13462" stroke-linecap="round"></path></svg>