<svg xmlns="http://www.w3.org/2000/svg" width="161" height="73" viewBox="0 0 161 73" fill="none"><g clip-path="url(#clip0_40_431)"><path d="M0 24.1575C0 37.8727 8.81551 47.9367 22.2469 47.9367C29.0571 47.9367 34.9026 45.1559 37.8727 40.7481V48.6177C37.8727 56.4874 32.6893 61.5573 24.6494 61.5573C17.4608 61.5573 12.7693 57.9062 11.9936 51.777H0.283761C1.72148 64.4327 11.0289 72.2078 24.6305 72.2078C39.9725 72.2078 49.469 62.3329 49.469 46.5179V1.53231H38.6294L37.9672 8.05882C35.1864 2.97003 29.6247 0 22.5306 0C9.0236 0 0 10.3478 0 24.1575ZM11.7855 23.8738C11.7855 16.0987 16.7797 10.2532 24.5359 10.2532C32.6893 10.2532 37.57 15.815 37.57 23.8738C37.57 31.9326 32.5758 37.7781 24.5359 37.7781C16.496 37.7781 11.7855 31.838 11.7855 23.8738ZM81.1368 50.1501C93.5088 50.1501 102.135 43.9262 104.14 33.5595H93.3007C91.9575 38.0618 87.7389 40.5589 81.307 40.5589C73.532 40.5589 69.1242 36.3403 68.2729 27.9978L103.932 27.9032V24.3467C103.951 9.59113 94.9276 0.0945871 80.7395 0.0945871C66.5515 0.0945871 57.1495 10.3478 57.1495 25.2169C57.1495 40.086 67.0244 50.1501 81.1179 50.1501H81.1368ZM80.8341 9.68571C87.8335 9.68571 92.3359 13.9989 92.3359 20.5254H68.5567C69.7107 13.4314 73.9292 9.68571 80.8341 9.68571ZM108.094 34.5243C108.094 43.8316 115.566 50.1501 127.371 50.1501C139.175 50.1501 147.215 44.21 147.215 34.6189C147.215 27.3357 143.186 23.6846 135.222 21.8685L126.69 19.8633C122.66 18.8985 120.561 17.177 120.561 14.4907C120.561 10.9343 123.247 8.83443 127.844 8.83443C132.441 8.83443 135.032 11.4261 135.127 15.4555H146.25C146.156 6.24275 138.967 0.113504 128.317 0.113504C117.666 0.113504 109.532 5.67522 109.532 14.9826C109.532 22.5496 113.656 26.579 122.188 28.5085L130.719 30.5138C134.938 31.4786 136.186 33.2001 136.186 35.6026C136.186 39.0455 133.216 41.2589 127.749 41.2589C122.282 41.2589 119.312 38.6672 119.218 34.5432H108.094V34.5243Z" fill="#053636"></path><path d="M153.117 35.5073H154.347V36.0938H153.117C152.872 36.0938 152.663 36.1883 152.512 36.3397C152.361 36.491 152.266 36.718 152.266 36.945V38.0612H151.68V36.945C151.68 36.5478 151.85 36.1883 152.096 35.9235C152.361 35.6587 152.72 35.5073 153.117 35.5073ZM156.92 35.5073H158.149C158.547 35.5073 158.906 35.6776 159.171 35.9235C159.436 36.1694 159.587 36.5478 159.587 36.945V38.0612H159.001V36.945C159.001 36.6991 158.906 36.491 158.755 36.3397C158.604 36.1883 158.377 36.0938 158.149 36.0938H156.92V35.5073ZM159.587 40.6529V41.769C159.587 42.1663 159.417 42.5257 159.171 42.7905C158.906 43.0554 158.547 43.2067 158.149 43.2067H156.92V42.6203H158.149C158.395 42.6203 158.604 42.5257 158.755 42.3743C158.906 42.223 159.001 41.996 159.001 41.769V40.6529H159.587ZM154.347 43.2067H153.117C152.72 43.2067 152.361 43.0365 152.096 42.7905C151.831 42.5257 151.68 42.1663 151.68 41.769V40.6529H152.266V41.769C152.266 42.0149 152.361 42.223 152.512 42.3743C152.663 42.5257 152.89 42.6203 153.117 42.6203H154.347V43.2067Z" fill="#053636"></path><path d="M153.118 34.8267H155.028V36.7752H153.042L152.985 36.8319L152.947 36.8887V36.9643V38.7615H150.999V36.9643C150.999 36.6806 151.056 36.3968 151.169 36.1509C151.283 35.886 151.434 35.659 151.623 35.4509C151.812 35.2618 152.058 35.0915 152.304 34.9969C152.55 34.9023 152.834 34.8267 153.118 34.8267ZM156.92 34.8267H158.15C158.433 34.8267 158.717 34.8834 158.963 34.9969C159.228 35.1104 159.455 35.2618 159.663 35.4509C159.852 35.6401 160.022 35.886 160.117 36.1509C160.23 36.3968 160.287 36.6806 160.287 36.9643V38.7615H158.339V36.8887L158.282 36.8319L158.225 36.7941H158.15H156.239V34.8456H156.92V34.8267ZM160.268 40.6532V41.7694C160.268 42.0531 160.212 42.3369 160.098 42.5828C159.985 42.8476 159.833 43.0747 159.644 43.2638C159.455 43.453 159.209 43.6233 158.963 43.7178C158.717 43.8313 158.433 43.8881 158.15 43.8881H156.239V41.9396H158.225L158.282 41.8829L158.32 41.8261V41.7504V39.9533H160.268V40.6343V40.6532ZM154.347 43.907H153.118C152.834 43.907 152.55 43.8503 152.304 43.7368C152.039 43.6233 151.812 43.4719 151.623 43.2827C151.434 43.0936 151.264 42.8476 151.169 42.6017C151.074 42.3558 150.999 42.072 150.999 41.7883V39.9911H152.947V41.8639L153.004 41.9207L153.061 41.9585H153.136H155.047V43.907H154.366H154.347Z" fill="#053636"></path><path d="M62.1248 56.9031V57.6598H62.6545V60.5731H63.5436V57.6598H64.4138V56.9031H63.5436V56.4491C63.5436 56.0896 63.6571 55.8437 64.1111 55.8437H64.4327V55.0681C64.2814 55.0303 64.1111 55.0303 63.9598 55.0303C63.1653 55.0303 62.6356 55.4465 62.6356 56.4302V56.8842H62.1059L62.1248 56.9031ZM64.6787 58.7381C64.6787 59.8731 65.511 60.6677 66.6272 60.6677C67.7433 60.6677 68.5756 59.8731 68.5756 58.7381C68.5756 57.603 67.7433 56.8085 66.6272 56.8085C65.511 56.8085 64.6787 57.603 64.6787 58.7381ZM65.5867 58.7381C65.5867 58.076 66.0218 57.622 66.6461 57.622C67.2703 57.622 67.7054 58.076 67.7054 58.7381C67.7054 59.4002 67.2703 59.8542 66.6461 59.8542C66.0218 59.8542 65.5867 59.4002 65.5867 58.7381ZM71.6214 56.8842C71.47 56.8463 71.3565 56.8274 71.2241 56.8274C70.7322 56.8274 70.3917 57.0734 70.2215 57.4328L70.1647 56.9031H69.3134V60.5542H70.2215V58.7759C70.2215 58.0571 70.6376 57.7165 71.2808 57.7165H71.6214V56.8842ZM73.1347 60.5731V58.4922C73.1347 57.9057 73.4753 57.622 73.9104 57.622C74.3455 57.622 74.6103 57.9057 74.6103 58.4165V60.5731H75.5183V58.4922C75.5183 57.8868 75.8589 57.603 76.294 57.603C76.7291 57.603 77.0128 57.8868 77.0128 58.3976V60.5542H77.9019V58.1516C77.9019 57.3004 77.4101 56.7707 76.521 56.7707C75.9724 56.7707 75.5373 57.0355 75.3481 57.4706C75.1589 57.0544 74.7616 56.7707 74.213 56.7707C73.6833 56.7707 73.3239 57.0166 73.1347 57.3193L73.0591 56.8842H72.2267V60.5542H73.1347V60.5731ZM79.8883 60.6677C80.4558 60.6677 80.9476 60.4028 81.1179 60.0245L81.1936 60.5731H81.9881V58.3408C81.9881 57.3193 81.3827 56.7896 80.399 56.7896C79.4153 56.7896 78.7532 57.3004 78.7532 58.0949H79.5288C79.5288 57.7165 79.8315 57.4895 80.3612 57.4895C80.8152 57.4895 81.1179 57.6976 81.1179 58.1895V58.2651L80.0207 58.3408C79.1505 58.4165 78.6586 58.8327 78.6586 59.5137C78.6586 60.1947 79.1316 60.6487 79.9072 60.6487L79.8883 60.6677ZM80.172 59.9866C79.7558 59.9866 79.5477 59.8164 79.5477 59.4948C79.5477 59.1921 79.7558 59.0218 80.3234 58.9651L81.0801 58.9083V59.0975C81.0801 59.665 80.7206 59.9866 80.172 59.9866ZM82.6502 58.7381C82.6502 59.8164 83.2745 60.5542 84.2582 60.6677L84.0879 61.0271L84.1825 61.273C84.296 61.2352 84.4095 61.1973 84.5419 61.1973C84.7311 61.1973 84.8446 61.2919 84.8446 61.4433C84.8446 61.6135 84.7122 61.727 84.4663 61.727C84.2771 61.727 84.1447 61.6703 83.9744 61.5946V62.0108C84.1258 62.0865 84.296 62.1432 84.523 62.1432C84.977 62.1432 85.3554 61.8973 85.3554 61.4433C85.3554 61.0271 85.0527 60.8568 84.769 60.8568C84.6744 60.8568 84.5987 60.8568 84.523 60.8947L84.6554 60.6487C85.5256 60.592 86.1688 60.0245 86.2823 59.211H85.3743C85.2797 59.6083 84.9581 59.8353 84.5041 59.8353C83.9177 59.8353 83.5772 59.4002 83.5772 58.7192C83.5772 58.0381 83.9555 57.5841 84.5419 57.5841C84.977 57.5841 85.2797 57.7922 85.3743 58.2084H86.2823C86.1878 57.3193 85.5067 56.7707 84.5041 56.7707C83.4258 56.7707 82.6691 57.5652 82.6691 58.7003L82.6502 58.7381ZM87.8146 56.4112C87.8146 56.1275 87.8903 55.9761 88.0606 55.9761C88.3254 55.9761 88.5903 56.4112 89.101 56.4112C89.574 56.4112 89.8577 56.0707 89.801 55.3708H89.2713C89.2713 55.6356 89.1956 55.8059 89.0064 55.8059C88.7038 55.8059 88.4389 55.3708 87.9471 55.3708C87.4552 55.3708 87.1904 55.787 87.2661 56.4112H87.7957H87.8146ZM88.0227 60.6677C88.5903 60.6677 89.0821 60.4028 89.2524 60.0245L89.328 60.5731H90.1226V58.3408C90.1226 57.3193 89.5172 56.7896 88.5335 56.7896C87.5498 56.7896 86.8877 57.3004 86.8877 58.0949H87.6633C87.6633 57.7165 87.966 57.4895 88.4957 57.4895C88.9497 57.4895 89.2524 57.6976 89.2524 58.1895V58.2651L88.1552 58.3408C87.285 58.4165 86.7931 58.8327 86.7931 59.5137C86.7931 60.1947 87.2661 60.6487 88.0417 60.6487L88.0227 60.6677ZM88.3254 59.9866C87.9092 59.9866 87.7011 59.8164 87.7011 59.4948C87.7011 59.1921 87.9092 59.0218 88.4768 58.9651L89.2335 58.9083V59.0975C89.2335 59.665 88.874 59.9866 88.3254 59.9866ZM90.7847 58.7381C90.7847 59.8731 91.6171 60.6677 92.7332 60.6677C93.8493 60.6677 94.6817 59.8731 94.6817 58.7381C94.6817 57.603 93.8493 56.8085 92.7332 56.8085C91.6171 56.8085 90.7847 57.603 90.7847 58.7381ZM91.6927 58.7381C91.6927 58.076 92.1278 57.622 92.7521 57.622C93.3764 57.622 93.8115 58.076 93.8115 58.7381C93.8115 59.4002 93.3764 59.8542 92.7521 59.8542C92.1278 59.8542 91.6927 59.4002 91.6927 58.7381ZM99.0516 60.6677C100.016 60.6677 100.678 60.1947 100.83 59.3813H99.9975C99.9029 59.7218 99.5624 59.9299 99.0705 59.9299C98.4652 59.9299 98.1246 59.6083 98.0679 58.9651H100.83V58.6813C100.83 57.5463 100.13 56.8085 99.0327 56.8085C97.9355 56.8085 97.2166 57.603 97.2166 58.757C97.2166 59.911 97.9733 60.6866 99.0705 60.6866L99.0516 60.6677ZM99.0327 57.5463C99.5813 57.5463 99.9218 57.8868 99.9218 58.3787H98.0868C98.1814 57.8301 98.503 57.5463 99.0327 57.5463ZM102.457 60.5731V58.4922C102.457 57.9057 102.797 57.622 103.232 57.622C103.667 57.622 103.932 57.9057 103.932 58.4165V60.5731H104.84V58.4922C104.84 57.8868 105.181 57.603 105.616 57.603C106.051 57.603 106.335 57.8868 106.335 58.3976V60.5542H107.224V58.1516C107.224 57.3004 106.732 56.7707 105.843 56.7707C105.294 56.7707 104.859 57.0355 104.67 57.4706C104.481 57.0544 104.084 56.7707 103.535 56.7707C103.005 56.7707 102.646 57.0166 102.457 57.3193L102.381 56.8842H101.549V60.5542H102.457V60.5731ZM111.007 60.5731V58.4922C111.007 57.9057 111.348 57.622 111.783 57.622C112.218 57.622 112.483 57.9057 112.483 58.4165V60.5731H113.391V58.4922C113.391 57.8868 113.732 57.603 114.167 57.603C114.602 57.603 114.885 57.8868 114.885 58.3976V60.5542H115.775V58.1516C115.775 57.3004 115.283 56.7707 114.394 56.7707C113.845 56.7707 113.41 57.0355 113.221 57.4706C113.032 57.0544 112.634 56.7707 112.086 56.7707C111.556 56.7707 111.197 57.0166 111.007 57.3193L110.932 56.8842H110.099V60.5542H111.007V60.5731ZM117.761 60.6677C118.328 60.6677 118.82 60.4028 118.991 60.0245L119.066 60.5731H119.861V58.3408C119.861 57.3193 119.255 56.7896 118.272 56.7896C117.288 56.7896 116.626 57.3004 116.626 58.0949H117.401C117.401 57.7165 117.704 57.4895 118.234 57.4895C118.688 57.4895 118.991 57.6976 118.991 58.1895V58.2651L117.893 58.3408C117.023 58.4165 116.531 58.8327 116.531 59.5137C116.531 60.1947 117.004 60.6487 117.78 60.6487L117.761 60.6677ZM118.064 59.9866C117.647 59.9866 117.439 59.8164 117.439 59.4948C117.439 59.1921 117.647 59.0218 118.215 58.9651L118.972 58.9083V59.0975C118.972 59.665 118.612 59.9866 118.064 59.9866ZM120.447 59.4569C120.447 60.1758 121.034 60.6677 121.942 60.6677C122.85 60.6677 123.474 60.2136 123.474 59.4569C123.474 58.8894 123.171 58.6057 122.547 58.4732L121.885 58.3219C121.582 58.2462 121.412 58.1138 121.412 57.9057C121.412 57.6409 121.62 57.4706 121.98 57.4706C122.339 57.4706 122.528 57.6787 122.547 57.9814H123.398C123.398 57.2625 122.831 56.7896 122.017 56.7896C121.204 56.7896 120.561 57.2247 120.561 57.9436C120.561 58.53 120.882 58.8327 121.544 58.984L122.207 59.1354C122.528 59.211 122.623 59.3434 122.623 59.5326C122.623 59.7975 122.396 59.9677 121.98 59.9677C121.563 59.9677 121.336 59.7596 121.317 59.4569H120.466H120.447ZM123.89 59.4569C123.89 60.1758 124.477 60.6677 125.385 60.6677C126.293 60.6677 126.917 60.2136 126.917 59.4569C126.917 58.8894 126.614 58.6057 125.99 58.4732L125.328 58.3219C125.025 58.2462 124.855 58.1138 124.855 57.9057C124.855 57.6409 125.063 57.4706 125.422 57.4706C125.782 57.4706 125.971 57.6787 125.99 57.9814H126.841C126.841 57.2625 126.274 56.7896 125.46 56.7896C124.647 56.7896 124.004 57.2247 124.004 57.9436C124.004 58.53 124.325 58.8327 124.987 58.984L125.649 59.1354C125.971 59.211 126.066 59.3434 126.066 59.5326C126.066 59.7975 125.839 59.9677 125.422 59.9677C125.006 59.9677 124.779 59.7596 124.76 59.4569H123.909H123.89ZM128.695 60.6677C129.263 60.6677 129.755 60.4028 129.925 60.0245L130 60.5731H130.795V58.3408C130.795 57.3193 130.19 56.7896 129.206 56.7896C128.222 56.7896 127.56 57.3004 127.56 58.0949H128.336C128.336 57.7165 128.638 57.4895 129.168 57.4895C129.622 57.4895 129.925 57.6976 129.925 58.1895V58.2651L128.828 58.3408C127.957 58.4165 127.466 58.8327 127.466 59.5137C127.466 60.1947 127.938 60.6487 128.714 60.6487L128.695 60.6677ZM128.979 59.9866C128.563 59.9866 128.355 59.8164 128.355 59.4948C128.355 59.1921 128.563 59.0218 129.13 58.9651L129.887 58.9083V59.0975C129.887 59.665 129.528 59.9866 128.979 59.9866ZM131.457 58.6624C131.457 59.7218 132.138 60.4974 133.179 60.4974C133.708 60.4974 134.162 60.2893 134.389 59.9488V60.5542C134.389 61.1595 133.992 61.5568 133.368 61.5568C132.819 61.5568 132.441 61.273 132.384 60.8001H131.476C131.59 61.7838 132.308 62.3702 133.368 62.3702C134.56 62.3702 135.278 61.6135 135.278 60.3839V56.9031H134.446L134.389 57.4139C134.181 57.0166 133.746 56.7896 133.198 56.7896C132.157 56.7896 131.457 57.5841 131.457 58.6624ZM132.365 58.6246C132.365 58.0192 132.743 57.5652 133.349 57.5652C133.973 57.5652 134.351 58.0003 134.351 58.6246C134.351 59.2489 133.973 59.7029 133.349 59.7029C132.725 59.7029 132.365 59.2489 132.365 58.6246ZM137.851 60.6677C138.816 60.6677 139.478 60.1947 139.629 59.3813H138.797C138.702 59.7218 138.362 59.9299 137.87 59.9299C137.265 59.9299 136.924 59.6083 136.867 58.9651H139.629V58.6813C139.629 57.5463 138.929 56.8085 137.832 56.8085C136.735 56.8085 136.016 57.603 136.016 58.757C136.016 59.911 136.773 60.6866 137.87 60.6866L137.851 60.6677ZM137.832 57.5463C138.381 57.5463 138.721 57.8868 138.721 58.3787H136.886C136.981 57.8301 137.303 57.5463 137.832 57.5463ZM141.256 60.5731V58.4922C141.256 57.9057 141.597 57.622 142.032 57.622C142.467 57.622 142.732 57.9057 142.732 58.4165V60.5731H143.64V58.4922C143.64 57.8868 143.98 57.603 144.416 57.603C144.851 57.603 145.134 57.8868 145.134 58.3976V60.5542H146.024V58.1516C146.024 57.3004 145.532 56.7707 144.643 56.7707C144.094 56.7707 143.659 57.0355 143.47 57.4706C143.28 57.0544 142.883 56.7707 142.335 56.7707C141.805 56.7707 141.446 57.0166 141.256 57.3193L141.181 56.8842H140.348V60.5542H141.256V60.5731Z" fill="#053636"></path></g><defs><clipPath id="clip0_40_431"><rect width="160.268" height="72.2078" fill="white"></rect></clipPath></defs></svg>