<svg xmlns="http://www.w3.org/2000/svg" width="700" height="148" viewBox="0 0 700 148" fill="none"><path d="M699.064 2.35054C699.167 1.5286 698.585 0.77837 697.763 0.674845C696.941 0.571319 696.191 1.1537 696.087 1.97564L699.064 2.35054ZM10.9508 147.542C11.5533 148.11 12.5027 148.083 13.0713 147.48L22.3366 137.662C22.9052 137.059 22.8777 136.11 22.2751 135.541C21.6726 134.973 20.7233 135 20.1547 135.603L11.9188 144.33L3.19127 136.095C2.58876 135.526 1.63941 135.554 1.07084 136.156C0.502276 136.759 0.529794 137.708 1.13231 138.276L10.9508 147.542ZM696.087 1.97564C692.534 30.1888 679.264 50.7265 658.739 65.502C638.159 80.3176 610.217 89.3825 577.312 94.4276C511.485 104.52 426.38 98.45 342.123 90.8499C257.979 83.2598 174.658 74.1396 112.733 78.2622C81.7804 80.3229 55.9489 85.7005 37.9826 96.3876C28.9755 101.745 21.9127 108.457 17.1934 116.777C12.4721 125.101 10.1462 134.947 10.4809 146.494L13.4797 146.407C13.1585 135.327 15.3895 126.038 19.8029 118.257C24.2183 110.473 30.8679 104.11 39.5163 98.966C56.8606 88.6488 82.1113 83.3075 112.933 81.2556C174.556 77.1531 257.551 86.2334 341.854 93.8377C426.045 101.432 511.518 107.55 577.766 97.393C610.898 92.3133 639.367 83.1439 660.492 67.9368C681.672 52.6895 695.403 31.416 699.064 2.35054L696.087 1.97564Z" fill="#1CC78E"></path></svg>