<svg xmlns="http://www.w3.org/2000/svg" width="792" height="124" viewBox="0 0 792 124" fill="none"><path d="M55.0378 51L69.2978 10.08H79.1558L93.4158 51H86.0998L74.6298 15.598H73.8238L62.3538 51H55.0378ZM62.1678 42.196V37.236H87.1538V42.196H62.1678ZM99.5504 51V18.76H106.246V51H99.5504ZM102.898 13.366C101.452 13.366 100.356 13.0767 99.6124 12.498C98.8684 11.878 98.4964 10.9687 98.4964 9.77C98.4964 8.61267 98.8684 7.724 99.6124 7.104C100.356 6.484 101.452 6.174 102.898 6.174C104.386 6.174 105.502 6.484 106.246 7.104C106.99 7.724 107.362 8.61267 107.362 9.77C107.362 10.9687 106.99 11.878 106.246 12.498C105.502 13.0767 104.386 13.366 102.898 13.366ZM115.595 51V31.16V18.76H121.423L121.051 28.804H122.105C122.684 26.324 123.449 24.2987 124.399 22.728C125.391 21.116 126.631 19.9173 128.119 19.132C129.649 18.3467 131.426 17.954 133.451 17.954C137.047 17.954 139.775 19.2353 141.635 21.798C143.537 24.3607 144.487 28.2667 144.487 33.516V51H137.667V34.198C137.667 30.602 137.13 27.9773 136.055 26.324C134.981 24.6293 133.369 23.782 131.219 23.782C129.359 23.782 127.768 24.3813 126.445 25.58C125.164 26.7373 124.172 28.2667 123.469 30.168C122.767 32.0693 122.374 34.136 122.291 36.368V51H115.595ZM164.907 51.806C162.179 51.806 159.823 51.1033 157.839 49.698C155.855 48.2513 154.346 46.2673 153.313 43.746C152.28 41.1833 151.763 38.228 151.763 34.88C151.763 31.6147 152.238 28.7213 153.189 26.2C154.181 23.6373 155.628 21.6327 157.529 20.186C159.472 18.7393 161.848 18.016 164.659 18.016C166.891 18.016 168.73 18.4707 170.177 19.38C171.624 20.248 172.781 21.4467 173.649 22.976C174.558 24.5053 175.24 26.2 175.695 28.06H176.935C176.728 26.8613 176.522 25.6213 176.315 24.34C176.108 23.0173 175.943 21.7567 175.819 20.558C175.695 19.318 175.633 18.2227 175.633 17.272V7.29H182.453V35.128V51H176.563L176.811 42.072H175.695C175.199 44.0973 174.496 45.8333 173.587 47.28C172.678 48.7267 171.5 49.8427 170.053 50.628C168.648 51.4133 166.932 51.806 164.907 51.806ZM166.767 46.102C168.214 46.102 169.495 45.7713 170.611 45.11C171.727 44.4487 172.657 43.5807 173.401 42.506C174.145 41.4313 174.703 40.274 175.075 39.034C175.488 37.7527 175.695 36.554 175.695 35.438V34.57C175.695 33.7433 175.571 32.8547 175.323 31.904C175.116 30.912 174.765 29.9407 174.269 28.99C173.814 27.998 173.236 27.1093 172.533 26.324C171.83 25.5387 170.983 24.9187 169.991 24.464C169.04 23.968 167.966 23.72 166.767 23.72C165.031 23.72 163.564 24.216 162.365 25.208C161.208 26.1587 160.319 27.4813 159.699 29.176C159.079 30.8707 158.769 32.8133 158.769 35.004C158.769 37.236 159.079 39.1993 159.699 40.894C160.36 42.5473 161.29 43.8287 162.489 44.738C163.688 45.6473 165.114 46.102 166.767 46.102ZM199.143 51.806C197.365 51.806 195.774 51.4753 194.369 50.814C192.963 50.1113 191.847 49.078 191.021 47.714C190.235 46.35 189.843 44.6553 189.843 42.63C189.843 41.018 190.132 39.6333 190.711 38.476C191.331 37.2773 192.24 36.2853 193.439 35.5C194.679 34.6733 196.249 34.012 198.151 33.516C200.052 32.9787 202.305 32.524 204.909 32.152C206.355 31.9453 207.533 31.7387 208.443 31.532C209.393 31.3253 210.075 30.9947 210.489 30.54C210.943 30.0853 211.171 29.4033 211.171 28.494C211.171 27.0887 210.675 25.89 209.683 24.898C208.732 23.8647 207.182 23.348 205.033 23.348C203.834 23.348 202.635 23.5547 201.437 23.968C200.279 24.3813 199.267 25.0633 198.399 26.014C197.572 26.9233 197.014 28.1633 196.725 29.734L190.649 27.812C191.021 26.2413 191.62 24.8567 192.447 23.658C193.273 22.418 194.307 21.3847 195.547 20.558C196.787 19.69 198.213 19.0493 199.825 18.636C201.478 18.1813 203.276 17.954 205.219 17.954C208.071 17.954 210.427 18.4293 212.287 19.38C214.147 20.3307 215.531 21.798 216.441 23.782C217.391 25.7247 217.867 28.2253 217.867 31.284V37.856C217.867 39.22 217.887 40.6667 217.929 42.196C218.011 43.684 218.094 45.1927 218.177 46.722C218.301 48.21 218.445 49.636 218.611 51H212.473C212.349 49.76 212.225 48.4787 212.101 47.156C212.018 45.8333 211.935 44.49 211.853 43.126H210.923C210.344 44.6967 209.517 46.1433 208.443 47.466C207.409 48.7887 206.107 49.8427 204.537 50.628C203.007 51.4133 201.209 51.806 199.143 51.806ZM201.499 46.598C202.367 46.598 203.235 46.4533 204.103 46.164C205.012 45.8747 205.901 45.4407 206.769 44.862C207.678 44.242 208.505 43.4567 209.249 42.506C210.034 41.5553 210.716 40.4187 211.295 39.096L211.233 33.268L212.845 33.578C212.142 34.198 211.253 34.6733 210.179 35.004C209.145 35.3347 208.009 35.6033 206.769 35.81C205.529 35.9753 204.289 36.182 203.049 36.43C201.85 36.6367 200.734 36.9467 199.701 37.36C198.709 37.732 197.903 38.2693 197.283 38.972C196.704 39.6747 196.415 40.646 196.415 41.886C196.415 43.4153 196.89 44.5933 197.841 45.42C198.791 46.2053 200.011 46.598 201.499 46.598ZM259.746 51.806C257.68 51.806 255.902 51.3927 254.414 50.566C252.968 49.7393 251.79 48.6027 250.88 47.156C249.971 45.7093 249.289 44.0147 248.834 42.072H247.78L247.966 51H242.138V35.128V7.29H248.896V17.52C248.896 18.5533 248.834 19.6693 248.71 20.868C248.586 22.0253 248.421 23.224 248.214 24.464C248.049 25.6627 247.863 26.8613 247.656 28.06H248.834C249.33 26.2 250.012 24.526 250.88 23.038C251.79 21.5087 252.968 20.2893 254.414 19.38C255.861 18.4707 257.659 18.016 259.808 18.016C262.495 18.016 264.81 18.7393 266.752 20.186C268.695 21.5913 270.183 23.5753 271.216 26.138C272.291 28.6593 272.828 31.6147 272.828 35.004C272.828 38.3107 272.312 41.2247 271.278 43.746C270.286 46.2673 268.819 48.2513 266.876 49.698C264.934 51.1033 262.557 51.806 259.746 51.806ZM257.824 46.102C259.478 46.102 260.904 45.6473 262.102 44.738C263.301 43.8287 264.21 42.5473 264.83 40.894C265.492 39.1993 265.822 37.236 265.822 35.004C265.822 32.8133 265.512 30.8707 264.892 29.176C264.272 27.4813 263.363 26.1587 262.164 25.208C261.007 24.216 259.581 23.72 257.886 23.72C256.688 23.72 255.592 23.968 254.6 24.464C253.65 24.9187 252.802 25.5387 252.058 26.324C251.356 27.1093 250.756 27.9773 250.26 28.928C249.806 29.8787 249.454 30.85 249.206 31.842C248.958 32.834 248.834 33.7433 248.834 34.57V35.438C248.834 36.554 249.02 37.7527 249.392 39.034C249.806 40.274 250.384 41.4313 251.128 42.506C251.914 43.5807 252.864 44.4487 253.98 45.11C255.096 45.7713 256.378 46.102 257.824 46.102ZM294.662 51.806C292.1 51.806 289.826 51.434 287.842 50.69C285.858 49.9047 284.184 48.8093 282.82 47.404C281.456 45.9573 280.423 44.242 279.72 42.258C279.018 40.2327 278.666 37.9593 278.666 35.438C278.666 32.9167 279.018 30.602 279.72 28.494C280.423 26.3447 281.415 24.4847 282.696 22.914C284.019 21.3433 285.631 20.124 287.532 19.256C289.475 18.388 291.666 17.954 294.104 17.954C296.378 17.954 298.403 18.326 300.18 19.07C301.999 19.814 303.528 20.9507 304.768 22.48C306.008 23.968 306.938 25.8487 307.558 28.122C308.178 30.354 308.406 32.9787 308.24 35.996L283.006 36.182V31.966L304.272 31.78L301.916 34.384C302.164 31.904 301.958 29.858 301.296 28.246C300.635 26.634 299.684 25.4353 298.444 24.65C297.204 23.8647 295.778 23.472 294.166 23.472C292.348 23.472 290.756 23.9473 289.392 24.898C288.07 25.8073 287.036 27.1507 286.292 28.928C285.548 30.7053 285.176 32.834 285.176 35.314C285.176 39.034 286.003 41.8447 287.656 43.746C289.31 45.606 291.666 46.536 294.724 46.536C296.006 46.536 297.101 46.3913 298.01 46.102C298.92 45.7713 299.684 45.358 300.304 44.862C300.924 44.3247 301.42 43.7047 301.792 43.002C302.206 42.258 302.536 41.4933 302.784 40.708L308.674 42.072C308.302 43.6013 307.724 44.9653 306.938 46.164C306.194 47.3213 305.244 48.334 304.086 49.202C302.929 50.0287 301.565 50.6693 299.994 51.124C298.465 51.5787 296.688 51.806 294.662 51.806ZM315.824 51V30.788V18.76H321.528L321.156 28.804H322.272C322.809 26.3653 323.532 24.3607 324.442 22.79C325.392 21.178 326.529 19.9793 327.852 19.194C329.216 18.3673 330.786 17.954 332.564 17.954C334.548 17.954 336.18 18.4293 337.462 19.38C338.784 20.3307 339.776 21.612 340.438 23.224C341.14 24.836 341.512 26.6547 341.554 28.68H342.546C343.083 26.324 343.827 24.3607 344.778 22.79C345.77 21.178 346.989 19.9793 348.436 19.194C349.882 18.3673 351.494 17.954 353.272 17.954C354.966 17.954 356.454 18.3053 357.736 19.008C359.017 19.6693 360.092 20.6613 360.96 21.984C361.828 23.3067 362.468 24.96 362.882 26.944C363.336 28.8867 363.564 31.1393 363.564 33.702V51H356.806V34.57C356.806 32.1727 356.599 30.1887 356.186 28.618C355.772 27.0473 355.132 25.8693 354.264 25.084C353.396 24.2987 352.3 23.906 350.978 23.906C349.49 23.906 348.167 24.4227 347.01 25.456C345.894 26.448 344.984 27.8327 344.282 29.61C343.579 31.3873 343.145 33.4333 342.98 35.748V51H336.346V35.004C336.346 32.524 336.139 30.478 335.726 28.866C335.312 27.2127 334.672 25.9727 333.804 25.146C332.936 24.3193 331.84 23.906 330.518 23.906C328.947 23.906 327.583 24.4433 326.426 25.518C325.31 26.5513 324.421 27.9773 323.76 29.796C323.098 31.6147 322.685 33.6607 322.52 35.934V51H315.824ZM409.828 61.168V52.364C409.828 51.2893 409.89 50.194 410.014 49.078C410.138 47.9207 410.304 46.7427 410.51 45.544C410.717 44.3453 410.903 43.188 411.068 42.072H410.014C409.477 43.8493 408.754 45.482 407.844 46.97C406.976 48.458 405.819 49.636 404.372 50.504C402.926 51.372 401.086 51.806 398.854 51.806C396.044 51.806 393.667 51.0827 391.724 49.636C389.823 48.148 388.376 46.1433 387.384 43.622C386.434 41.0593 385.958 38.1867 385.958 35.004C385.958 31.6973 386.454 28.7627 387.446 26.2C388.48 23.6373 389.988 21.6327 391.972 20.186C393.998 18.698 396.436 17.954 399.288 17.954C401.355 17.954 403.112 18.3467 404.558 19.132C406.005 19.876 407.162 20.9507 408.03 22.356C408.94 23.7613 409.58 25.4147 409.952 27.316H411.068L410.758 18.822H416.648V34.818V61.168H409.828ZM400.962 46.164C402.161 46.164 403.236 45.9367 404.186 45.482C405.137 44.986 405.964 44.3453 406.666 43.56C407.41 42.7747 408.01 41.9067 408.464 40.956C408.96 40.0053 409.312 39.0547 409.518 38.104C409.766 37.112 409.89 36.2027 409.89 35.376V34.446C409.89 33.2473 409.684 32.028 409.27 30.788C408.898 29.5067 408.34 28.3493 407.596 27.316C406.852 26.2413 405.922 25.3733 404.806 24.712C403.69 24.0507 402.409 23.72 400.962 23.72C399.309 23.72 397.883 24.1953 396.684 25.146C395.486 26.0553 394.556 27.3367 393.894 28.99C393.274 30.6433 392.964 32.6067 392.964 34.88C392.964 37.0707 393.274 39.0133 393.894 40.708C394.514 42.4027 395.403 43.746 396.56 44.738C397.759 45.6887 399.226 46.164 400.962 46.164ZM436.438 51.806C432.801 51.806 430.052 50.566 428.192 48.086C426.332 45.5647 425.402 41.7827 425.402 36.74V18.76H432.16V35.996C432.16 39.3853 432.677 41.9067 433.71 43.56C434.743 45.2133 436.376 46.04 438.608 46.04C439.848 46.04 440.943 45.73 441.894 45.11C442.845 44.49 443.671 43.622 444.374 42.506C445.118 41.39 445.697 40.088 446.11 38.6C446.565 37.0707 446.875 35.3967 447.04 33.578V18.76H453.736V37.608V51H448.032L448.342 40.77H447.288C446.751 43.3327 445.986 45.4407 444.994 47.094C444.043 48.706 442.845 49.9047 441.398 50.69C439.993 51.434 438.339 51.806 436.438 51.806ZM477.211 51.806C474.649 51.806 472.375 51.434 470.391 50.69C468.407 49.9047 466.733 48.8093 465.369 47.404C464.005 45.9573 462.972 44.242 462.269 42.258C461.567 40.2327 461.215 37.9593 461.215 35.438C461.215 32.9167 461.567 30.602 462.269 28.494C462.972 26.3447 463.964 24.4847 465.245 22.914C466.568 21.3433 468.18 20.124 470.081 19.256C472.024 18.388 474.215 17.954 476.653 17.954C478.927 17.954 480.952 18.326 482.729 19.07C484.548 19.814 486.077 20.9507 487.317 22.48C488.557 23.968 489.487 25.8487 490.107 28.122C490.727 30.354 490.955 32.9787 490.789 35.996L465.555 36.182V31.966L486.821 31.78L484.465 34.384C484.713 31.904 484.507 29.858 483.845 28.246C483.184 26.634 482.233 25.4353 480.993 24.65C479.753 23.8647 478.327 23.472 476.715 23.472C474.897 23.472 473.305 23.9473 471.941 24.898C470.619 25.8073 469.585 27.1507 468.841 28.928C468.097 30.7053 467.725 32.834 467.725 35.314C467.725 39.034 468.552 41.8447 470.205 43.746C471.859 45.606 474.215 46.536 477.273 46.536C478.555 46.536 479.65 46.3913 480.559 46.102C481.469 45.7713 482.233 45.358 482.853 44.862C483.473 44.3247 483.969 43.7047 484.341 43.002C484.755 42.258 485.085 41.4933 485.333 40.708L491.223 42.072C490.851 43.6013 490.273 44.9653 489.487 46.164C488.743 47.3213 487.793 48.334 486.635 49.202C485.478 50.0287 484.114 50.6693 482.543 51.124C481.014 51.5787 479.237 51.806 477.211 51.806ZM493.665 59.37C494.409 57.4687 494.926 55.7327 495.215 54.162C495.546 52.5913 495.732 51.0827 495.773 49.636C495.856 48.148 495.897 46.6393 495.897 45.11H502.221C502.221 47.466 502.076 49.5327 501.787 51.31C501.498 53.0873 501.105 54.6373 500.609 55.96C500.113 57.2827 499.617 58.4193 499.121 59.37H493.665ZM523.681 51V30.788V18.76H529.385L529.013 28.804H530.129C530.667 26.3653 531.39 24.3607 532.299 22.79C533.25 21.178 534.387 19.9793 535.709 19.194C537.073 18.3673 538.644 17.954 540.421 17.954C542.405 17.954 544.038 18.4293 545.319 19.38C546.642 20.3307 547.634 21.612 548.295 23.224C548.998 24.836 549.37 26.6547 549.411 28.68H550.403C550.941 26.324 551.685 24.3607 552.635 22.79C553.627 21.178 554.847 19.9793 556.293 19.194C557.74 18.3673 559.352 17.954 561.129 17.954C562.824 17.954 564.312 18.3053 565.593 19.008C566.875 19.6693 567.949 20.6613 568.817 21.984C569.685 23.3067 570.326 24.96 570.739 26.944C571.194 28.8867 571.421 31.1393 571.421 33.702V51H564.663V34.57C564.663 32.1727 564.457 30.1887 564.043 28.618C563.63 27.0473 562.989 25.8693 562.121 25.084C561.253 24.2987 560.158 23.906 558.835 23.906C557.347 23.906 556.025 24.4227 554.867 25.456C553.751 26.448 552.842 27.8327 552.139 29.61C551.437 31.3873 551.003 33.4333 550.837 35.748V51H544.203V35.004C544.203 32.524 543.997 30.478 543.583 28.866C543.17 27.2127 542.529 25.9727 541.661 25.146C540.793 24.3193 539.698 23.906 538.375 23.906C536.805 23.906 535.441 24.4433 534.283 25.518C533.167 26.5513 532.279 27.9773 531.617 29.796C530.956 31.6147 530.543 33.6607 530.377 35.934V51H523.681ZM594.43 51.806C591.867 51.806 589.594 51.434 587.61 50.69C585.626 49.9047 583.952 48.8093 582.588 47.404C581.224 45.9573 580.191 44.242 579.488 42.258C578.785 40.2327 578.434 37.9593 578.434 35.438C578.434 32.9167 578.785 30.602 579.488 28.494C580.191 26.3447 581.183 24.4847 582.464 22.914C583.787 21.3433 585.399 20.124 587.3 19.256C589.243 18.388 591.433 17.954 593.872 17.954C596.145 17.954 598.171 18.326 599.948 19.07C601.767 19.814 603.296 20.9507 604.536 22.48C605.776 23.968 606.706 25.8487 607.326 28.122C607.946 30.354 608.173 32.9787 608.008 35.996L582.774 36.182V31.966L604.04 31.78L601.684 34.384C601.932 31.904 601.725 29.858 601.064 28.246C600.403 26.634 599.452 25.4353 598.212 24.65C596.972 23.8647 595.546 23.472 593.934 23.472C592.115 23.472 590.524 23.9473 589.16 24.898C587.837 25.8073 586.804 27.1507 586.06 28.928C585.316 30.7053 584.944 32.834 584.944 35.314C584.944 39.034 585.771 41.8447 587.424 43.746C589.077 45.606 591.433 46.536 594.492 46.536C595.773 46.536 596.869 46.3913 597.778 46.102C598.687 45.7713 599.452 45.358 600.072 44.862C600.692 44.3247 601.188 43.7047 601.56 43.002C601.973 42.258 602.304 41.4933 602.552 40.708L608.442 42.072C608.07 43.6013 607.491 44.9653 606.706 46.164C605.962 47.3213 605.011 48.334 603.854 49.202C602.697 50.0287 601.333 50.6693 599.762 51.124C598.233 51.5787 596.455 51.806 594.43 51.806ZM628.291 51.806C626.059 51.806 624.075 51.5787 622.339 51.124C620.603 50.6693 619.115 50.0287 617.875 49.202C616.677 48.334 615.747 47.3007 615.085 46.102C614.424 44.9033 614.031 43.6013 613.907 42.196L619.363 40.398C619.363 41.5967 619.735 42.6713 620.479 43.622C621.223 44.5727 622.277 45.3167 623.641 45.854C625.047 46.35 626.721 46.598 628.663 46.598C630.937 46.598 632.693 46.226 633.933 45.482C635.173 44.738 635.793 43.7047 635.793 42.382C635.793 41.39 635.442 40.6047 634.739 40.026C634.078 39.4473 633.107 38.972 631.825 38.6C630.585 38.228 629.118 37.8767 627.423 37.546C625.894 37.2153 624.365 36.8433 622.835 36.43C621.347 35.9753 619.963 35.3967 618.681 34.694C617.441 33.9913 616.429 33.082 615.643 31.966C614.899 30.8087 614.527 29.362 614.527 27.626C614.527 25.642 615.044 23.9473 616.077 22.542C617.111 21.0953 618.599 19.9793 620.541 19.194C622.525 18.3673 624.881 17.954 627.609 17.954C630.255 17.954 632.528 18.3467 634.429 19.132C636.372 19.9173 637.922 21.0127 639.079 22.418C640.237 23.8233 640.939 25.4767 641.187 27.378L635.483 29.052C635.401 27.7707 635.008 26.696 634.305 25.828C633.644 24.96 632.735 24.3193 631.577 23.906C630.42 23.4513 629.056 23.224 627.485 23.224C625.419 23.224 623.786 23.596 622.587 24.34C621.43 25.084 620.851 26.0967 620.851 27.378C620.851 28.37 621.203 29.176 621.905 29.796C622.649 30.3747 623.641 30.85 624.881 31.222C626.163 31.5527 627.609 31.8833 629.221 32.214C630.875 32.5447 632.466 32.9167 633.995 33.33C635.525 33.7433 636.889 34.3013 638.087 35.004C639.327 35.6653 640.299 36.5747 641.001 37.732C641.745 38.848 642.117 40.274 642.117 42.01C642.117 44.118 641.539 45.916 640.381 47.404C639.265 48.8507 637.674 49.946 635.607 50.69C633.541 51.434 631.102 51.806 628.291 51.806ZM649.255 51V30.788V18.76H654.959L654.587 28.804H655.703C656.241 26.3653 656.964 24.3607 657.873 22.79C658.824 21.178 659.961 19.9793 661.283 19.194C662.647 18.3673 664.218 17.954 665.995 17.954C667.979 17.954 669.612 18.4293 670.893 19.38C672.216 20.3307 673.208 21.612 673.869 23.224C674.572 24.836 674.944 26.6547 674.985 28.68H675.977C676.515 26.324 677.259 24.3607 678.209 22.79C679.201 21.178 680.421 19.9793 681.867 19.194C683.314 18.3673 684.926 17.954 686.703 17.954C688.398 17.954 689.886 18.3053 691.167 19.008C692.449 19.6693 693.523 20.6613 694.391 21.984C695.259 23.3067 695.9 24.96 696.313 26.944C696.768 28.8867 696.995 31.1393 696.995 33.702V51H690.237V34.57C690.237 32.1727 690.031 30.1887 689.617 28.618C689.204 27.0473 688.563 25.8693 687.695 25.084C686.827 24.2987 685.732 23.906 684.409 23.906C682.921 23.906 681.599 24.4227 680.441 25.456C679.325 26.448 678.416 27.8327 677.713 29.61C677.011 31.3873 676.577 33.4333 676.411 35.748V51H669.777V35.004C669.777 32.524 669.571 30.478 669.157 28.866C668.744 27.2127 668.103 25.9727 667.235 25.146C666.367 24.3193 665.272 23.906 663.949 23.906C662.379 23.906 661.015 24.4433 659.857 25.518C658.741 26.5513 657.853 27.9773 657.191 29.796C656.53 31.6147 656.117 33.6607 655.951 35.934V51H649.255ZM719.88 51.806C716.78 51.806 714.032 51.1447 711.634 49.822C709.237 48.4993 707.356 46.5773 705.992 44.056C704.67 41.5347 704.008 38.4347 704.008 34.756C704.008 30.9947 704.711 27.874 706.116 25.394C707.522 22.914 709.402 21.054 711.758 19.814C714.156 18.574 716.842 17.954 719.818 17.954C722.877 17.954 725.605 18.5947 728.002 19.876C730.4 21.1573 732.28 23.0587 733.644 25.58C735.05 28.1013 735.752 31.2427 735.752 35.004C735.752 38.724 735.05 41.8447 733.644 44.366C732.28 46.846 730.4 48.706 728.002 49.946C725.605 51.186 722.898 51.806 719.88 51.806ZM720.128 46.474C721.988 46.474 723.58 46.04 724.902 45.172C726.225 44.304 727.238 43.0227 727.94 41.328C728.643 39.6333 728.994 37.608 728.994 35.252C728.994 32.8133 728.622 30.726 727.878 28.99C727.134 27.2127 726.06 25.8487 724.654 24.898C723.29 23.9473 721.616 23.472 719.632 23.472C717.855 23.472 716.284 23.906 714.92 24.774C713.598 25.6007 712.585 26.8613 711.882 28.556C711.18 30.2093 710.828 32.2347 710.828 34.632C710.828 38.3933 711.655 41.3073 713.308 43.374C714.962 45.4407 717.235 46.474 720.128 46.474ZM21.6193 113.806C19.842 113.806 18.2506 113.475 16.8453 112.814C15.44 112.111 14.324 111.078 13.4973 109.714C12.712 108.35 12.3193 106.655 12.3193 104.63C12.3193 103.018 12.6086 101.633 13.1873 100.476C13.8073 99.2773 14.7166 98.2853 15.9153 97.5C17.1553 96.6733 18.726 96.012 20.6273 95.516C22.5286 94.9787 24.7813 94.524 27.3853 94.152C28.832 93.9453 30.01 93.7387 30.9193 93.532C31.87 93.3253 32.552 92.9947 32.9653 92.54C33.42 92.0853 33.6473 91.4033 33.6473 90.494C33.6473 89.0887 33.1513 87.89 32.1593 86.898C31.2086 85.8647 29.6586 85.348 27.5093 85.348C26.3106 85.348 25.112 85.5547 23.9133 85.968C22.756 86.3813 21.7433 87.0633 20.8753 88.014C20.0486 88.9233 19.4906 90.1633 19.2013 91.734L13.1253 89.812C13.4973 88.2413 14.0966 86.8567 14.9233 85.658C15.75 84.418 16.7833 83.3847 18.0233 82.558C19.2633 81.69 20.6893 81.0493 22.3013 80.636C23.9546 80.1813 25.7526 79.954 27.6953 79.954C30.5473 79.954 32.9033 80.4293 34.7633 81.38C36.6233 82.3307 38.008 83.798 38.9173 85.782C39.868 87.7247 40.3433 90.2253 40.3433 93.284V99.856C40.3433 101.22 40.364 102.667 40.4053 104.196C40.488 105.684 40.5706 107.193 40.6533 108.722C40.7773 110.21 40.922 111.636 41.0873 113H34.9493C34.8253 111.76 34.7013 110.479 34.5773 109.156C34.4946 107.833 34.412 106.49 34.3293 105.126H33.3993C32.8206 106.697 31.994 108.143 30.9193 109.466C29.886 110.789 28.584 111.843 27.0133 112.628C25.484 113.413 23.686 113.806 21.6193 113.806ZM23.9753 108.598C24.8433 108.598 25.7113 108.453 26.5793 108.164C27.4886 107.875 28.3773 107.441 29.2453 106.862C30.1546 106.242 30.9813 105.457 31.7253 104.506C32.5106 103.555 33.1926 102.419 33.7713 101.096L33.7093 95.268L35.3213 95.578C34.6186 96.198 33.73 96.6733 32.6553 97.004C31.622 97.3347 30.4853 97.6033 29.2453 97.81C28.0053 97.9753 26.7653 98.182 25.5253 98.43C24.3266 98.6367 23.2106 98.9467 22.1773 99.36C21.1853 99.732 20.3793 100.269 19.7593 100.972C19.1806 101.675 18.8913 102.646 18.8913 103.886C18.8913 105.415 19.3666 106.593 20.3173 107.42C21.268 108.205 22.4873 108.598 23.9753 108.598ZM61.5725 113.806C59.3405 113.806 57.3565 113.579 55.6205 113.124C53.8845 112.669 52.3965 112.029 51.1565 111.202C49.9578 110.334 49.0278 109.301 48.3665 108.102C47.7052 106.903 47.3125 105.601 47.1885 104.196L52.6445 102.398C52.6445 103.597 53.0165 104.671 53.7605 105.622C54.5045 106.573 55.5585 107.317 56.9225 107.854C58.3278 108.35 60.0018 108.598 61.9445 108.598C64.2178 108.598 65.9745 108.226 67.2145 107.482C68.4545 106.738 69.0745 105.705 69.0745 104.382C69.0745 103.39 68.7232 102.605 68.0205 102.026C67.3592 101.447 66.3878 100.972 65.1065 100.6C63.8665 100.228 62.3992 99.8767 60.7045 99.546C59.1752 99.2153 57.6458 98.8433 56.1165 98.43C54.6285 97.9753 53.2438 97.3967 51.9625 96.694C50.7225 95.9913 49.7098 95.082 48.9245 93.966C48.1805 92.8087 47.8085 91.362 47.8085 89.626C47.8085 87.642 48.3252 85.9473 49.3585 84.542C50.3918 83.0953 51.8798 81.9793 53.8225 81.194C55.8065 80.3673 58.1625 79.954 60.8905 79.954C63.5358 79.954 65.8092 80.3467 67.7105 81.132C69.6532 81.9173 71.2032 83.0127 72.3605 84.418C73.5178 85.8233 74.2205 87.4767 74.4685 89.378L68.7645 91.052C68.6818 89.7707 68.2892 88.696 67.5865 87.828C66.9252 86.96 66.0158 86.3193 64.8585 85.906C63.7012 85.4513 62.3372 85.224 60.7665 85.224C58.6998 85.224 57.0672 85.596 55.8685 86.34C54.7112 87.084 54.1325 88.0967 54.1325 89.378C54.1325 90.37 54.4838 91.176 55.1865 91.796C55.9305 92.3747 56.9225 92.85 58.1625 93.222C59.4438 93.5527 60.8905 93.8833 62.5025 94.214C64.1558 94.5447 65.7472 94.9167 67.2765 95.33C68.8058 95.7433 70.1698 96.3013 71.3685 97.004C72.6085 97.6653 73.5798 98.5747 74.2825 99.732C75.0265 100.848 75.3985 102.274 75.3985 104.01C75.3985 106.118 74.8198 107.916 73.6625 109.404C72.5465 110.851 70.9552 111.946 68.8885 112.69C66.8218 113.434 64.3832 113.806 61.5725 113.806ZM95.2971 113.806C93.0651 113.806 91.0811 113.579 89.3451 113.124C87.6091 112.669 86.1211 112.029 84.8811 111.202C83.6824 110.334 82.7524 109.301 82.0911 108.102C81.4298 106.903 81.0371 105.601 80.9131 104.196L86.3691 102.398C86.3691 103.597 86.7411 104.671 87.4851 105.622C88.2291 106.573 89.2831 107.317 90.6471 107.854C92.0524 108.35 93.7264 108.598 95.6691 108.598C97.9424 108.598 99.6991 108.226 100.939 107.482C102.179 106.738 102.799 105.705 102.799 104.382C102.799 103.39 102.448 102.605 101.745 102.026C101.084 101.447 100.112 100.972 98.8311 100.6C97.5911 100.228 96.1238 99.8767 94.4291 99.546C92.8998 99.2153 91.3704 98.8433 89.8411 98.43C88.3531 97.9753 86.9684 97.3967 85.6871 96.694C84.4471 95.9913 83.4344 95.082 82.6491 93.966C81.9051 92.8087 81.5331 91.362 81.5331 89.626C81.5331 87.642 82.0498 85.9473 83.0831 84.542C84.1164 83.0953 85.6044 81.9793 87.5471 81.194C89.5311 80.3673 91.8871 79.954 94.6151 79.954C97.2604 79.954 99.5338 80.3467 101.435 81.132C103.378 81.9173 104.928 83.0127 106.085 84.418C107.242 85.8233 107.945 87.4767 108.193 89.378L102.489 91.052C102.406 89.7707 102.014 88.696 101.311 87.828C100.65 86.96 99.7404 86.3193 98.5831 85.906C97.4258 85.4513 96.0618 85.224 94.4911 85.224C92.4244 85.224 90.7918 85.596 89.5931 86.34C88.4358 87.084 87.8571 88.0967 87.8571 89.378C87.8571 90.37 88.2084 91.176 88.9111 91.796C89.6551 92.3747 90.6471 92.85 91.8871 93.222C93.1684 93.5527 94.6151 93.8833 96.2271 94.214C97.8804 94.5447 99.4718 94.9167 101.001 95.33C102.53 95.7433 103.894 96.3013 105.093 97.004C106.333 97.6653 107.304 98.5747 108.007 99.732C108.751 100.848 109.123 102.274 109.123 104.01C109.123 106.118 108.544 107.916 107.387 109.404C106.271 110.851 104.68 111.946 102.613 112.69C100.546 113.434 98.1078 113.806 95.2971 113.806ZM116.261 113V80.76H122.957V113H116.261ZM119.609 75.366C118.163 75.366 117.067 75.0767 116.323 74.498C115.579 73.878 115.207 72.9687 115.207 71.77C115.207 70.6127 115.579 69.724 116.323 69.104C117.067 68.484 118.163 68.174 119.609 68.174C121.097 68.174 122.213 68.484 122.957 69.104C123.701 69.724 124.073 70.6127 124.073 71.77C124.073 72.9687 123.701 73.878 122.957 74.498C122.213 75.0767 121.097 75.366 119.609 75.366ZM132.306 113V92.788V80.76H138.01L137.638 90.804H138.754C139.292 88.3653 140.015 86.3607 140.924 84.79C141.875 83.178 143.012 81.9793 144.334 81.194C145.698 80.3673 147.269 79.954 149.046 79.954C151.03 79.954 152.663 80.4293 153.944 81.38C155.267 82.3307 156.259 83.612 156.92 85.224C157.623 86.836 157.995 88.6547 158.036 90.68H159.028C159.566 88.324 160.31 86.3607 161.26 84.79C162.252 83.178 163.472 81.9793 164.918 81.194C166.365 80.3673 167.977 79.954 169.754 79.954C171.449 79.954 172.937 80.3053 174.218 81.008C175.5 81.6693 176.574 82.6613 177.442 83.984C178.31 85.3067 178.951 86.96 179.364 88.944C179.819 90.8867 180.046 93.1393 180.046 95.702V113H173.288V96.57C173.288 94.1727 173.082 92.1887 172.668 90.618C172.255 89.0473 171.614 87.8693 170.746 87.084C169.878 86.2987 168.783 85.906 167.46 85.906C165.972 85.906 164.65 86.4227 163.492 87.456C162.376 88.448 161.467 89.8327 160.764 91.61C160.062 93.3873 159.628 95.4333 159.462 97.748V113H152.828V97.004C152.828 94.524 152.622 92.478 152.208 90.866C151.795 89.2127 151.154 87.9727 150.286 87.146C149.418 86.3193 148.323 85.906 147 85.906C145.43 85.906 144.066 86.4433 142.908 87.518C141.792 88.5513 140.904 89.9773 140.242 91.796C139.581 93.6147 139.168 95.6607 139.002 97.934V113H132.306ZM184.331 121.37C185.075 119.469 185.592 117.733 185.881 116.162C186.212 114.591 186.398 113.083 186.439 111.636C186.522 110.148 186.563 108.639 186.563 107.11H192.887C192.887 109.466 192.742 111.533 192.453 113.31C192.164 115.087 191.771 116.637 191.275 117.96C190.779 119.283 190.283 120.419 189.787 121.37H184.331Z" fill="#053636"></path><path d="M228.917 113.868C226.231 113.868 223.833 113.496 221.725 112.752C219.659 112.008 217.902 110.933 216.455 109.528C215.009 108.123 213.893 106.387 213.107 104.32C212.363 102.253 211.991 99.918 211.991 97.314C211.991 94.7513 212.343 92.3953 213.045 90.246C213.789 88.0553 214.864 86.1747 216.269 84.604C217.675 82.992 219.39 81.752 221.415 80.884C223.441 80.016 225.735 79.582 228.297 79.582C230.777 79.582 232.989 79.9953 234.931 80.822C236.874 81.6073 238.486 82.806 239.767 84.418C241.09 86.03 242.041 88.014 242.619 90.37C243.239 92.6847 243.467 95.3507 243.301 98.368L217.757 98.616V93.718L238.155 93.532L234.993 96.012C235.283 93.8213 235.138 92.0233 234.559 90.618C233.981 89.2127 233.133 88.1793 232.017 87.518C230.943 86.8567 229.744 86.526 228.421 86.526C226.851 86.526 225.466 86.9393 224.267 87.766C223.069 88.5927 222.139 89.812 221.477 91.424C220.816 92.9947 220.485 94.896 220.485 97.128C220.485 100.641 221.25 103.225 222.779 104.878C224.35 106.531 226.396 107.358 228.917 107.358C230.075 107.358 231.046 107.213 231.831 106.924C232.658 106.593 233.319 106.18 233.815 105.684C234.353 105.188 234.766 104.63 235.055 104.01C235.386 103.39 235.655 102.77 235.861 102.15L243.611 103.824C243.239 105.353 242.681 106.738 241.937 107.978C241.235 109.177 240.284 110.231 239.085 111.14C237.887 112.008 236.44 112.669 234.745 113.124C233.092 113.62 231.149 113.868 228.917 113.868ZM249.815 113V68.67H258.619V113H249.815ZM281.956 113.868C279.27 113.868 276.872 113.496 274.764 112.752C272.698 112.008 270.941 110.933 269.494 109.528C268.048 108.123 266.932 106.387 266.146 104.32C265.402 102.253 265.03 99.918 265.03 97.314C265.03 94.7513 265.382 92.3953 266.084 90.246C266.828 88.0553 267.903 86.1747 269.308 84.604C270.714 82.992 272.429 81.752 274.454 80.884C276.48 80.016 278.774 79.582 281.336 79.582C283.816 79.582 286.028 79.9953 287.97 80.822C289.913 81.6073 291.525 82.806 292.806 84.418C294.129 86.03 295.08 88.014 295.658 90.37C296.278 92.6847 296.506 95.3507 296.34 98.368L270.796 98.616V93.718L291.194 93.532L288.032 96.012C288.322 93.8213 288.177 92.0233 287.598 90.618C287.02 89.2127 286.172 88.1793 285.056 87.518C283.982 86.8567 282.783 86.526 281.46 86.526C279.89 86.526 278.505 86.9393 277.306 87.766C276.108 88.5927 275.178 89.812 274.516 91.424C273.855 92.9947 273.524 94.896 273.524 97.128C273.524 100.641 274.289 103.225 275.818 104.878C277.389 106.531 279.435 107.358 281.956 107.358C283.114 107.358 284.085 107.213 284.87 106.924C285.697 106.593 286.358 106.18 286.854 105.684C287.392 105.188 287.805 104.63 288.094 104.01C288.425 103.39 288.694 102.77 288.9 102.15L296.65 103.824C296.278 105.353 295.72 106.738 294.976 107.978C294.274 109.177 293.323 110.231 292.124 111.14C290.926 112.008 289.479 112.669 287.784 113.124C286.131 113.62 284.188 113.868 281.956 113.868ZM316.237 113.868C314.046 113.868 312.062 113.661 310.285 113.248C308.508 112.835 306.978 112.235 305.697 111.45C304.416 110.665 303.382 109.735 302.597 108.66C301.812 107.544 301.295 106.304 301.047 104.94L307.867 102.15C308.032 103.059 308.487 103.907 309.231 104.692C309.975 105.477 310.967 106.118 312.207 106.614C313.488 107.069 315.018 107.296 316.795 107.296C318.696 107.296 320.164 107.027 321.197 106.49C322.23 105.911 322.747 105.105 322.747 104.072C322.747 103.287 322.458 102.667 321.879 102.212C321.3 101.757 320.453 101.365 319.337 101.034C318.221 100.703 316.878 100.393 315.307 100.104C313.778 99.732 312.207 99.3393 310.595 98.926C309.024 98.5127 307.557 97.934 306.193 97.19C304.87 96.446 303.775 95.4747 302.907 94.276C302.08 93.036 301.667 91.4653 301.667 89.564C301.667 87.58 302.204 85.844 303.279 84.356C304.354 82.868 305.924 81.7107 307.991 80.884C310.058 80.016 312.579 79.582 315.555 79.582C318.242 79.582 320.598 79.954 322.623 80.698C324.648 81.4007 326.302 82.434 327.583 83.798C328.906 85.1207 329.794 86.712 330.249 88.572L322.995 90.99C322.83 89.998 322.416 89.13 321.755 88.386C321.135 87.642 320.288 87.084 319.213 86.712C318.18 86.34 316.96 86.154 315.555 86.154C313.778 86.154 312.393 86.4433 311.401 87.022C310.45 87.6007 309.975 88.3653 309.975 89.316C309.975 90.1013 310.285 90.742 310.905 91.238C311.566 91.734 312.476 92.1473 313.633 92.478C314.79 92.7673 316.154 93.0773 317.725 93.408C319.378 93.7387 320.99 94.1313 322.561 94.586C324.132 94.9993 325.537 95.5573 326.777 96.26C328.058 96.9627 329.071 97.8927 329.815 99.05C330.559 100.207 330.931 101.695 330.931 103.514C330.931 105.663 330.352 107.523 329.195 109.094C328.038 110.623 326.364 111.801 324.173 112.628C321.982 113.455 319.337 113.868 316.237 113.868ZM366.359 113.868C363.672 113.868 361.275 113.496 359.167 112.752C357.1 112.008 355.343 110.933 353.897 109.528C352.45 108.123 351.334 106.387 350.549 104.32C349.805 102.253 349.433 99.918 349.433 97.314C349.433 94.7513 349.784 92.3953 350.487 90.246C351.231 88.0553 352.305 86.1747 353.711 84.604C355.116 82.992 356.831 81.752 358.857 80.884C360.882 80.016 363.176 79.582 365.739 79.582C368.219 79.582 370.43 79.9953 372.373 80.822C374.315 81.6073 375.927 82.806 377.209 84.418C378.531 86.03 379.482 88.014 380.061 90.37C380.681 92.6847 380.908 95.3507 380.743 98.368L355.199 98.616V93.718L375.597 93.532L372.435 96.012C372.724 93.8213 372.579 92.0233 372.001 90.618C371.422 89.2127 370.575 88.1793 369.459 87.518C368.384 86.8567 367.185 86.526 365.863 86.526C364.292 86.526 362.907 86.9393 361.709 87.766C360.51 88.5927 359.58 89.812 358.919 91.424C358.257 92.9947 357.927 94.896 357.927 97.128C357.927 100.641 358.691 103.225 360.221 104.878C361.791 106.531 363.837 107.358 366.359 107.358C367.516 107.358 368.487 107.213 369.273 106.924C370.099 106.593 370.761 106.18 371.257 105.684C371.794 105.188 372.207 104.63 372.497 104.01C372.827 103.39 373.096 102.77 373.303 102.15L381.053 103.824C380.681 105.353 380.123 106.738 379.379 107.978C378.676 109.177 377.725 110.231 376.527 111.14C375.328 112.008 373.881 112.669 372.187 113.124C370.533 113.62 368.591 113.868 366.359 113.868ZM400.639 113.868C398.449 113.868 396.465 113.661 394.687 113.248C392.91 112.835 391.381 112.235 390.099 111.45C388.818 110.665 387.785 109.735 386.999 108.66C386.214 107.544 385.697 106.304 385.449 104.94L392.269 102.15C392.435 103.059 392.889 103.907 393.633 104.692C394.377 105.477 395.369 106.118 396.609 106.614C397.891 107.069 399.42 107.296 401.197 107.296C403.099 107.296 404.566 107.027 405.599 106.49C406.633 105.911 407.149 105.105 407.149 104.072C407.149 103.287 406.86 102.667 406.281 102.212C405.703 101.757 404.855 101.365 403.739 101.034C402.623 100.703 401.28 100.393 399.709 100.104C398.18 99.732 396.609 99.3393 394.997 98.926C393.427 98.5127 391.959 97.934 390.595 97.19C389.273 96.446 388.177 95.4747 387.309 94.276C386.483 93.036 386.069 91.4653 386.069 89.564C386.069 87.58 386.607 85.844 387.681 84.356C388.756 82.868 390.327 81.7107 392.393 80.884C394.46 80.016 396.981 79.582 399.957 79.582C402.644 79.582 405 79.954 407.025 80.698C409.051 81.4007 410.704 82.434 411.985 83.798C413.308 85.1207 414.197 86.712 414.651 88.572L407.397 90.99C407.232 89.998 406.819 89.13 406.157 88.386C405.537 87.642 404.69 87.084 403.615 86.712C402.582 86.34 401.363 86.154 399.957 86.154C398.18 86.154 396.795 86.4433 395.803 87.022C394.853 87.6007 394.377 88.3653 394.377 89.316C394.377 90.1013 394.687 90.742 395.307 91.238C395.969 91.734 396.878 92.1473 398.035 92.478C399.193 92.7673 400.557 93.0773 402.127 93.408C403.781 93.7387 405.393 94.1313 406.963 94.586C408.534 94.9993 409.939 95.5573 411.179 96.26C412.461 96.9627 413.473 97.8927 414.217 99.05C414.961 100.207 415.333 101.695 415.333 103.514C415.333 105.663 414.755 107.523 413.597 109.094C412.44 110.623 410.766 111.801 408.575 112.628C406.385 113.455 403.739 113.868 400.639 113.868ZM433.434 113.744C429.797 113.744 427.11 112.793 425.374 110.892C423.679 108.949 422.832 105.87 422.832 101.654V87.456H418.12L418.244 80.45H421.53C422.811 80.45 423.762 80.264 424.382 79.892C425.002 79.52 425.374 78.838 425.498 77.846L426.304 73.196H431.388V80.45H439.634V87.704H431.388V101.282C431.388 102.77 431.739 103.845 432.442 104.506C433.145 105.167 434.219 105.498 435.666 105.498C436.451 105.498 437.195 105.415 437.898 105.25C438.642 105.085 439.283 104.816 439.82 104.444V112.752C438.539 113.165 437.361 113.434 436.286 113.558C435.211 113.682 434.261 113.744 433.434 113.744ZM453.613 113.868C451.794 113.868 450.182 113.517 448.777 112.814C447.371 112.07 446.276 111.016 445.491 109.652C444.705 108.288 444.313 106.593 444.313 104.568C444.313 102.791 444.643 101.303 445.305 100.104C446.007 98.9053 447.02 97.934 448.343 97.19C449.665 96.446 451.298 95.826 453.241 95.33C455.183 94.834 457.395 94.4 459.875 94.028C461.197 93.8213 462.272 93.6353 463.099 93.47C463.967 93.2633 464.607 92.9533 465.021 92.54C465.434 92.0853 465.641 91.4447 465.641 90.618C465.641 89.4607 465.227 88.4687 464.401 87.642C463.574 86.8153 462.272 86.402 460.495 86.402C459.296 86.402 458.18 86.6087 457.147 87.022C456.155 87.4353 455.287 88.0553 454.543 88.882C453.84 89.7087 453.323 90.7627 452.993 92.044L445.119 89.626C445.615 87.9313 446.317 86.464 447.227 85.224C448.177 83.984 449.314 82.9507 450.637 82.124C451.959 81.256 453.468 80.6153 455.163 80.202C456.857 79.7887 458.697 79.582 460.681 79.582C463.863 79.582 466.447 80.0987 468.431 81.132C470.456 82.124 471.965 83.6947 472.957 85.844C473.949 87.952 474.445 90.68 474.445 94.028V99.608C474.445 101.055 474.465 102.522 474.507 104.01C474.589 105.498 474.672 107.007 474.755 108.536C474.879 110.024 475.003 111.512 475.127 113H467.253C467.087 111.967 466.922 110.789 466.757 109.466C466.633 108.102 466.529 106.738 466.447 105.374H465.331C464.752 106.945 463.925 108.371 462.851 109.652C461.776 110.933 460.453 111.967 458.883 112.752C457.353 113.496 455.597 113.868 453.613 113.868ZM457.395 107.42C458.18 107.42 458.965 107.275 459.751 106.986C460.577 106.697 461.363 106.304 462.107 105.808C462.892 105.271 463.595 104.609 464.215 103.824C464.876 103.039 465.413 102.15 465.827 101.158L465.703 95.95L467.129 96.26C466.385 96.7973 465.517 97.2313 464.525 97.562C463.533 97.8513 462.499 98.0787 461.425 98.244C460.391 98.4093 459.358 98.5953 458.325 98.802C457.291 99.0087 456.361 99.2773 455.535 99.608C454.749 99.9387 454.109 100.393 453.613 100.972C453.158 101.509 452.931 102.274 452.931 103.266C452.931 104.547 453.344 105.56 454.171 106.304C454.997 107.048 456.072 107.42 457.395 107.42ZM466.633 76.42C465.723 76.42 464.773 76.2547 463.781 75.924C462.789 75.5933 461.797 75.2213 460.805 74.808C459.854 74.3533 458.965 73.9607 458.139 73.63C457.312 73.258 456.63 73.072 456.093 73.072C455.39 73.072 454.956 73.382 454.791 74.002C454.625 74.5807 454.605 75.242 454.729 75.986H450.637C449.934 74.5393 449.665 73.1547 449.831 71.832C449.996 70.5093 450.492 69.4553 451.319 68.67C452.145 67.8433 453.22 67.43 454.543 67.43C455.411 67.43 456.32 67.5953 457.271 67.926C458.263 68.2567 459.234 68.6287 460.185 69.042C461.135 69.4553 462.003 69.8273 462.789 70.158C463.615 70.4887 464.277 70.654 464.773 70.654C465.517 70.654 465.951 70.344 466.075 69.724C466.24 69.0627 466.261 68.4013 466.137 67.74H470.229C470.807 69.1453 471.055 70.53 470.973 71.894C470.89 73.2167 470.497 74.312 469.795 75.18C469.092 76.0067 468.038 76.42 466.633 76.42ZM497.01 113.868C493.745 113.868 490.872 113.227 488.392 111.946C485.912 110.623 483.969 108.701 482.564 106.18C481.159 103.617 480.456 100.435 480.456 96.632C480.456 92.8293 481.159 89.6673 482.564 87.146C484.011 84.6247 485.974 82.744 488.454 81.504C490.975 80.2227 493.827 79.582 497.01 79.582C500.275 79.582 503.148 80.2227 505.628 81.504C508.149 82.7853 510.113 84.7073 511.518 87.27C512.965 89.7913 513.688 92.9533 513.688 96.756C513.688 100.6 512.944 103.803 511.456 106.366C510.009 108.887 508.025 110.768 505.504 112.008C503.024 113.248 500.193 113.868 497.01 113.868ZM497.32 107.234C498.932 107.234 500.275 106.862 501.35 106.118C502.466 105.374 503.293 104.258 503.83 102.77C504.409 101.241 504.698 99.4013 504.698 97.252C504.698 94.9787 504.388 93.0567 503.768 91.486C503.189 89.874 502.321 88.6547 501.164 87.828C500.007 86.96 498.539 86.526 496.762 86.526C495.233 86.526 493.91 86.898 492.794 87.642C491.678 88.3447 490.831 89.4607 490.252 90.99C489.673 92.478 489.384 94.3173 489.384 96.508C489.384 100.021 490.087 102.687 491.492 104.506C492.897 106.325 494.84 107.234 497.32 107.234ZM549.452 113.868C546.766 113.868 544.368 113.496 542.26 112.752C540.194 112.008 538.437 110.933 536.99 109.528C535.544 108.123 534.428 106.387 533.642 104.32C532.898 102.253 532.526 99.918 532.526 97.314C532.526 94.7513 532.878 92.3953 533.58 90.246C534.324 88.0553 535.399 86.1747 536.804 84.604C538.21 82.992 539.925 81.752 541.95 80.884C543.976 80.016 546.27 79.582 548.832 79.582C551.312 79.582 553.524 79.9953 555.466 80.822C557.409 81.6073 559.021 82.806 560.302 84.418C561.625 86.03 562.576 88.014 563.154 90.37C563.774 92.6847 564.002 95.3507 563.836 98.368L538.292 98.616V93.718L558.69 93.532L555.528 96.012C555.818 93.8213 555.673 92.0233 555.094 90.618C554.516 89.2127 553.668 88.1793 552.552 87.518C551.478 86.8567 550.279 86.526 548.956 86.526C547.386 86.526 546.001 86.9393 544.802 87.766C543.604 88.5927 542.674 89.812 542.012 91.424C541.351 92.9947 541.02 94.896 541.02 97.128C541.02 100.641 541.785 103.225 543.314 104.878C544.885 106.531 546.931 107.358 549.452 107.358C550.61 107.358 551.581 107.213 552.366 106.924C553.193 106.593 553.854 106.18 554.35 105.684C554.888 105.188 555.301 104.63 555.59 104.01C555.921 103.39 556.19 102.77 556.396 102.15L564.146 103.824C563.774 105.353 563.216 106.738 562.472 107.978C561.77 109.177 560.819 110.231 559.62 111.14C558.422 112.008 556.975 112.669 555.28 113.124C553.627 113.62 551.684 113.868 549.452 113.868ZM570.35 113V97.252V80.45H577.728L577.79 91.548H578.968C579.298 88.7787 579.856 86.526 580.642 84.79C581.468 83.054 582.605 81.7727 584.052 80.946C585.498 80.1193 587.296 79.706 589.446 79.706C589.818 79.706 590.21 79.7267 590.624 79.768C591.078 79.768 591.595 79.83 592.174 79.954L591.802 89.44C591.182 89.1507 590.5 88.944 589.756 88.82C589.012 88.696 588.35 88.634 587.772 88.634C586.16 88.634 584.775 89.006 583.618 89.75C582.46 90.494 581.51 91.5687 580.766 92.974C580.063 94.338 579.588 96.012 579.34 97.996V113H570.35ZM597.233 113V97.252V80.45H604.611L604.673 91.548H605.851C606.181 88.7787 606.739 86.526 607.525 84.79C608.351 83.054 609.488 81.7727 610.935 80.946C612.381 80.1193 614.179 79.706 616.329 79.706C616.701 79.706 617.093 79.7267 617.507 79.768C617.961 79.768 618.478 79.83 619.057 79.954L618.685 89.44C618.065 89.1507 617.383 88.944 616.639 88.82C615.895 88.696 615.233 88.634 614.655 88.634C613.043 88.634 611.658 89.006 610.501 89.75C609.343 90.494 608.393 91.5687 607.649 92.974C606.946 94.338 606.471 96.012 606.223 97.996V113H597.233ZM631.257 113.868C629.438 113.868 627.826 113.517 626.421 112.814C625.016 112.07 623.92 111.016 623.135 109.652C622.35 108.288 621.957 106.593 621.957 104.568C621.957 102.791 622.288 101.303 622.949 100.104C623.652 98.9053 624.664 97.934 625.987 97.19C627.31 96.446 628.942 95.826 630.885 95.33C632.828 94.834 635.039 94.4 637.519 94.028C638.842 93.8213 639.916 93.6353 640.743 93.47C641.611 93.2633 642.252 92.9533 642.665 92.54C643.078 92.0853 643.285 91.4447 643.285 90.618C643.285 89.4607 642.872 88.4687 642.045 87.642C641.218 86.8153 639.916 86.402 638.139 86.402C636.94 86.402 635.824 86.6087 634.791 87.022C633.799 87.4353 632.931 88.0553 632.187 88.882C631.484 89.7087 630.968 90.7627 630.637 92.044L622.763 89.626C623.259 87.9313 623.962 86.464 624.871 85.224C625.822 83.984 626.958 82.9507 628.281 82.124C629.604 81.256 631.112 80.6153 632.807 80.202C634.502 79.7887 636.341 79.582 638.325 79.582C641.508 79.582 644.091 80.0987 646.075 81.132C648.1 82.124 649.609 83.6947 650.601 85.844C651.593 87.952 652.089 90.68 652.089 94.028V99.608C652.089 101.055 652.11 102.522 652.151 104.01C652.234 105.498 652.316 107.007 652.399 108.536C652.523 110.024 652.647 111.512 652.771 113H644.897C644.732 111.967 644.566 110.789 644.401 109.466C644.277 108.102 644.174 106.738 644.091 105.374H642.975C642.396 106.945 641.57 108.371 640.495 109.652C639.42 110.933 638.098 111.967 636.527 112.752C634.998 113.496 633.241 113.868 631.257 113.868ZM635.039 107.42C635.824 107.42 636.61 107.275 637.395 106.986C638.222 106.697 639.007 106.304 639.751 105.808C640.536 105.271 641.239 104.609 641.859 103.824C642.52 103.039 643.058 102.15 643.471 101.158L643.347 95.95L644.773 96.26C644.029 96.7973 643.161 97.2313 642.169 97.562C641.177 97.8513 640.144 98.0787 639.069 98.244C638.036 98.4093 637.002 98.5953 635.969 98.802C634.936 99.0087 634.006 99.2773 633.179 99.608C632.394 99.9387 631.753 100.393 631.257 100.972C630.802 101.509 630.575 102.274 630.575 103.266C630.575 104.547 630.988 105.56 631.815 106.304C632.642 107.048 633.716 107.42 635.039 107.42ZM671.862 113.868C669.134 113.868 666.736 113.165 664.67 111.76C662.644 110.355 661.074 108.371 659.958 105.808C658.842 103.245 658.284 100.207 658.284 96.694C658.284 93.3873 658.78 90.4527 659.772 87.89C660.764 85.3273 662.231 83.3227 664.174 81.876C666.116 80.4293 668.534 79.706 671.428 79.706C673.536 79.706 675.313 80.0987 676.76 80.884C678.206 81.6693 679.384 82.8267 680.294 84.356C681.244 85.844 681.988 87.642 682.526 89.75H683.952C683.662 88.4273 683.394 87.146 683.146 85.906C682.939 84.6247 682.774 83.4053 682.65 82.248C682.526 81.0907 682.464 80.078 682.464 79.21V68.67H691.392V97.004V113H683.952V103.576H682.712C682.257 105.891 681.554 107.813 680.604 109.342C679.653 110.871 678.434 112.008 676.946 112.752C675.499 113.496 673.804 113.868 671.862 113.868ZM674.838 106.552C676.202 106.552 677.359 106.263 678.31 105.684C679.26 105.105 680.046 104.361 680.666 103.452C681.286 102.501 681.74 101.489 682.03 100.414C682.319 99.298 682.464 98.2647 682.464 97.314V96.136C682.464 95.3507 682.34 94.5447 682.092 93.718C681.885 92.85 681.575 92.0027 681.162 91.176C680.748 90.3493 680.232 89.626 679.612 89.006C678.992 88.3447 678.268 87.828 677.442 87.456C676.615 87.084 675.706 86.898 674.714 86.898C673.226 86.898 671.965 87.3113 670.932 88.138C669.898 88.9647 669.092 90.122 668.514 91.61C667.935 93.0567 667.646 94.7513 667.646 96.694C667.646 98.678 667.935 100.414 668.514 101.902C669.134 103.39 669.981 104.547 671.056 105.374C672.13 106.159 673.391 106.552 674.838 106.552ZM714.373 113.868C711.108 113.868 708.235 113.227 705.755 111.946C703.275 110.623 701.333 108.701 699.927 106.18C698.522 103.617 697.819 100.435 697.819 96.632C697.819 92.8293 698.522 89.6673 699.927 87.146C701.374 84.6247 703.337 82.744 705.817 81.504C708.339 80.2227 711.191 79.582 714.373 79.582C717.639 79.582 720.511 80.2227 722.991 81.504C725.513 82.7853 727.476 84.7073 728.881 87.27C730.328 89.7913 731.051 92.9533 731.051 96.756C731.051 100.6 730.307 103.803 728.819 106.366C727.373 108.887 725.389 110.768 722.867 112.008C720.387 113.248 717.556 113.868 714.373 113.868ZM714.683 107.234C716.295 107.234 717.639 106.862 718.713 106.118C719.829 105.374 720.656 104.258 721.193 102.77C721.772 101.241 722.061 99.4013 722.061 97.252C722.061 94.9787 721.751 93.0567 721.131 91.486C720.553 89.874 719.685 88.6547 718.527 87.828C717.37 86.96 715.903 86.526 714.125 86.526C712.596 86.526 711.273 86.898 710.157 87.642C709.041 88.3447 708.194 89.4607 707.615 90.99C707.037 92.478 706.747 94.3173 706.747 96.508C706.747 100.021 707.45 102.687 708.855 104.506C710.261 106.325 712.203 107.234 714.683 107.234ZM750.721 113.868C748.531 113.868 746.547 113.661 744.769 113.248C742.992 112.835 741.463 112.235 740.181 111.45C738.9 110.665 737.867 109.735 737.081 108.66C736.296 107.544 735.779 106.304 735.531 104.94L742.351 102.15C742.517 103.059 742.971 103.907 743.715 104.692C744.459 105.477 745.451 106.118 746.691 106.614C747.973 107.069 749.502 107.296 751.279 107.296C753.181 107.296 754.648 107.027 755.681 106.49C756.715 105.911 757.231 105.105 757.231 104.072C757.231 103.287 756.942 102.667 756.363 102.212C755.785 101.757 754.937 101.365 753.821 101.034C752.705 100.703 751.362 100.393 749.791 100.104C748.262 99.732 746.691 99.3393 745.079 98.926C743.509 98.5127 742.041 97.934 740.677 97.19C739.355 96.446 738.259 95.4747 737.391 94.276C736.565 93.036 736.151 91.4653 736.151 89.564C736.151 87.58 736.689 85.844 737.763 84.356C738.838 82.868 740.409 81.7107 742.475 80.884C744.542 80.016 747.063 79.582 750.039 79.582C752.726 79.582 755.082 79.954 757.107 80.698C759.133 81.4007 760.786 82.434 762.067 83.798C763.39 85.1207 764.279 86.712 764.733 88.572L757.479 90.99C757.314 89.998 756.901 89.13 756.239 88.386C755.619 87.642 754.772 87.084 753.697 86.712C752.664 86.34 751.445 86.154 750.039 86.154C748.262 86.154 746.877 86.4433 745.885 87.022C744.935 87.6007 744.459 88.3653 744.459 89.316C744.459 90.1013 744.769 90.742 745.389 91.238C746.051 91.734 746.96 92.1473 748.117 92.478C749.275 92.7673 750.639 93.0773 752.209 93.408C753.863 93.7387 755.475 94.1313 757.045 94.586C758.616 94.9993 760.021 95.5573 761.261 96.26C762.543 96.9627 763.555 97.8927 764.299 99.05C765.043 100.207 765.415 101.695 765.415 103.514C765.415 105.663 764.837 107.523 763.679 109.094C762.522 110.623 760.848 111.801 758.657 112.628C756.467 113.455 753.821 113.868 750.721 113.868ZM775.192 113.806C773.249 113.806 771.782 113.393 770.79 112.566C769.839 111.739 769.364 110.458 769.364 108.722C769.364 106.945 769.839 105.643 770.79 104.816C771.782 103.989 773.249 103.576 775.192 103.576C777.176 103.576 778.643 103.989 779.594 104.816C780.586 105.643 781.082 106.945 781.082 108.722C781.082 112.111 779.119 113.806 775.192 113.806Z" fill="#053636" fill-opacity="0.2"></path><path d="M203.395 115.464L787.112 77.9775" stroke="#EC5353" stroke-width="3" stroke-linecap="round"></path></svg>